<?xml version="1.0" encoding="UTF-8"?>
<svg xmlns="http://www.w3.org/2000/svg" xmlns:xlink="http://www.w3.org/1999/xlink" width="600pt" height="599.999999pt" viewBox="0 0 600 599.999999" version="1.2">
<defs>
<clipPath id="clip1">
  <path d="M 198.054688 172.570312 L 402.054688 172.570312 L 402.054688 427.566406 L 198.054688 427.566406 Z M 198.054688 172.570312 "/>
</clipPath>
<clipPath id="clip2">
  <path d="M 342.636719 287.378906 C 342.636719 284.117188 343.867188 281.132812 345.890625 278.875 C 343.867188 276.617188 342.636719 273.636719 342.636719 270.371094 L 342.636719 253.363281 C 342.636719 251.019531 340.726562 249.109375 338.382812 249.109375 C 336.035156 249.109375 334.132812 247.207031 334.132812 244.859375 C 334.132812 242.507812 336.035156 240.605469 338.382812 240.605469 C 345.417969 240.605469 351.140625 246.328125 351.140625 253.363281 L 351.140625 270.371094 C 351.140625 272.714844 353.050781 274.625 355.394531 274.625 C 357.742188 274.625 359.644531 276.527344 359.644531 278.875 C 359.644531 281.222656 357.742188 283.128906 355.394531 283.128906 C 353.050781 283.128906 351.140625 285.035156 351.140625 287.378906 L 351.140625 304.390625 C 351.140625 311.421875 345.417969 317.144531 338.382812 317.144531 C 336.035156 317.144531 334.132812 315.242188 334.132812 312.894531 C 334.132812 310.546875 336.035156 308.640625 338.382812 308.640625 C 340.726562 308.640625 342.636719 306.734375 342.636719 304.390625 Z M 240.578125 278.875 C 240.578125 276.527344 242.480469 274.625 244.832031 274.625 C 247.175781 274.625 249.082031 272.714844 249.082031 270.371094 L 249.082031 253.363281 C 249.082031 246.328125 254.804688 240.605469 261.839844 240.605469 C 264.1875 240.605469 266.09375 242.507812 266.09375 244.859375 C 266.09375 247.207031 264.1875 249.109375 261.839844 249.109375 C 259.496094 249.109375 257.585938 251.019531 257.585938 253.363281 L 257.585938 270.371094 C 257.585938 273.636719 256.355469 276.617188 254.332031 278.875 C 256.355469 281.132812 257.585938 284.117188 257.585938 287.378906 L 257.585938 304.390625 C 257.585938 306.734375 259.496094 308.640625 261.839844 308.640625 C 264.1875 308.640625 266.09375 310.546875 266.09375 312.894531 C 266.09375 315.242188 264.1875 317.144531 261.839844 317.144531 C 254.804688 317.144531 249.082031 311.421875 249.082031 304.390625 L 249.082031 287.378906 C 249.082031 285.035156 247.175781 283.128906 244.832031 283.128906 C 242.480469 283.128906 240.578125 281.222656 240.578125 278.875 Z M 295.859375 278.875 C 295.859375 276.527344 297.761719 274.625 300.113281 274.625 C 302.460938 274.625 304.363281 276.527344 304.363281 278.875 C 304.363281 281.222656 302.460938 283.128906 300.113281 283.128906 C 297.761719 283.128906 295.859375 281.222656 295.859375 278.875 Z M 278.851562 278.875 C 278.851562 276.527344 280.753906 274.625 283.101562 274.625 C 285.449219 274.625 287.355469 276.527344 287.355469 278.875 C 287.355469 281.222656 285.449219 283.128906 283.101562 283.128906 C 280.753906 283.128906 278.851562 281.222656 278.851562 278.875 Z M 312.871094 278.875 C 312.871094 276.527344 314.773438 274.625 317.121094 274.625 C 319.46875 274.625 321.375 276.527344 321.375 278.875 C 321.375 281.222656 319.46875 283.128906 317.121094 283.128906 C 314.773438 283.128906 312.871094 281.222656 312.871094 278.875 Z M 312.871094 380.929688 C 312.871094 383.273438 314.777344 385.183594 317.121094 385.183594 C 324.15625 385.183594 329.878906 390.902344 329.878906 397.9375 C 329.878906 404.972656 324.15625 410.695312 317.121094 410.695312 L 308.617188 410.695312 C 306.269531 410.695312 304.363281 408.792969 304.363281 406.441406 C 304.363281 404.09375 306.269531 402.191406 308.617188 402.191406 L 317.121094 402.191406 C 319.464844 402.191406 321.375 400.28125 321.375 397.9375 C 321.375 395.59375 319.464844 393.6875 317.121094 393.6875 C 310.085938 393.6875 304.363281 387.964844 304.363281 380.929688 C 304.363281 373.894531 310.085938 368.171875 317.121094 368.171875 L 325.625 368.171875 C 327.976562 368.171875 329.878906 370.078125 329.878906 372.425781 C 329.878906 374.773438 327.976562 376.675781 325.625 376.675781 L 317.121094 376.675781 C 314.777344 376.675781 312.871094 378.585938 312.871094 380.929688 Z M 295.859375 372.425781 L 295.859375 397.9375 C 295.859375 404.972656 290.136719 410.695312 283.101562 410.695312 C 276.066406 410.695312 270.34375 404.972656 270.34375 397.9375 C 270.34375 395.589844 272.25 393.6875 274.597656 393.6875 C 276.945312 393.6875 278.851562 395.589844 278.851562 397.9375 C 278.851562 400.28125 280.757812 402.191406 283.101562 402.191406 C 285.445312 402.191406 287.355469 400.28125 287.355469 397.9375 L 287.355469 372.425781 C 287.355469 370.078125 289.257812 368.171875 291.605469 368.171875 C 293.957031 368.171875 295.859375 370.078125 295.859375 372.425781 Z M 372.402344 419.199219 L 227.820312 419.199219 C 216.097656 419.199219 206.558594 409.660156 206.558594 397.9375 L 206.558594 359.667969 L 393.664062 359.667969 L 393.664062 397.9375 C 393.664062 409.660156 384.125 419.199219 372.402344 419.199219 Z M 227.820312 181.074219 L 342.636719 181.074219 L 342.636719 202.335938 C 342.636719 218.75 355.988281 232.101562 372.402344 232.101562 L 393.664062 232.101562 L 393.664062 351.164062 L 206.558594 351.164062 L 206.558594 202.335938 C 206.558594 190.613281 216.097656 181.074219 227.820312 181.074219 Z M 351.140625 187.085938 L 387.652344 223.597656 L 372.402344 223.597656 C 360.679688 223.597656 351.140625 214.058594 351.140625 202.335938 Z M 349.894531 173.816406 C 349.097656 173.019531 348.015625 172.570312 346.890625 172.570312 L 227.820312 172.570312 C 211.40625 172.570312 198.054688 185.921875 198.054688 202.335938 L 198.054688 397.9375 C 198.054688 414.351562 211.40625 427.703125 227.820312 427.703125 L 372.402344 427.703125 C 388.816406 427.703125 402.171875 414.351562 402.171875 397.9375 L 402.171875 227.847656 C 402.171875 226.722656 401.722656 225.640625 400.925781 224.84375 Z M 349.894531 173.816406 "/>
</clipPath>
<clipPath id="clip3">
  <path d="M 342.636719 287.378906 C 342.636719 284.117188 343.867188 281.132812 345.890625 278.875 C 343.867188 276.617188 342.636719 273.636719 342.636719 270.371094 L 342.636719 253.363281 C 342.636719 251.019531 340.726562 249.109375 338.382812 249.109375 C 336.035156 249.109375 334.132812 247.207031 334.132812 244.859375 C 334.132812 242.507812 336.035156 240.605469 338.382812 240.605469 C 345.417969 240.605469 351.140625 246.328125 351.140625 253.363281 L 351.140625 270.371094 C 351.140625 272.714844 353.050781 274.625 355.394531 274.625 C 357.742188 274.625 359.644531 276.527344 359.644531 278.875 C 359.644531 281.222656 357.742188 283.128906 355.394531 283.128906 C 353.050781 283.128906 351.140625 285.035156 351.140625 287.378906 L 351.140625 304.390625 C 351.140625 311.421875 345.417969 317.144531 338.382812 317.144531 C 336.035156 317.144531 334.132812 315.242188 334.132812 312.894531 C 334.132812 310.546875 336.035156 308.640625 338.382812 308.640625 C 340.726562 308.640625 342.636719 306.734375 342.636719 304.390625 Z M 240.578125 278.875 C 240.578125 276.527344 242.480469 274.625 244.832031 274.625 C 247.175781 274.625 249.082031 272.714844 249.082031 270.371094 L 249.082031 253.363281 C 249.082031 246.328125 254.804688 240.605469 261.839844 240.605469 C 264.1875 240.605469 266.09375 242.507812 266.09375 244.859375 C 266.09375 247.207031 264.1875 249.109375 261.839844 249.109375 C 259.496094 249.109375 257.585938 251.019531 257.585938 253.363281 L 257.585938 270.371094 C 257.585938 273.636719 256.355469 276.617188 254.332031 278.875 C 256.355469 281.132812 257.585938 284.117188 257.585938 287.378906 L 257.585938 304.390625 C 257.585938 306.734375 259.496094 308.640625 261.839844 308.640625 C 264.1875 308.640625 266.09375 310.546875 266.09375 312.894531 C 266.09375 315.242188 264.1875 317.144531 261.839844 317.144531 C 254.804688 317.144531 249.082031 311.421875 249.082031 304.390625 L 249.082031 287.378906 C 249.082031 285.035156 247.175781 283.128906 244.832031 283.128906 C 242.480469 283.128906 240.578125 281.222656 240.578125 278.875 Z M 295.859375 278.875 C 295.859375 276.527344 297.761719 274.625 300.113281 274.625 C 302.460938 274.625 304.363281 276.527344 304.363281 278.875 C 304.363281 281.222656 302.460938 283.128906 300.113281 283.128906 C 297.761719 283.128906 295.859375 281.222656 295.859375 278.875 Z M 278.851562 278.875 C 278.851562 276.527344 280.753906 274.625 283.101562 274.625 C 285.449219 274.625 287.355469 276.527344 287.355469 278.875 C 287.355469 281.222656 285.449219 283.128906 283.101562 283.128906 C 280.753906 283.128906 278.851562 281.222656 278.851562 278.875 Z M 312.871094 278.875 C 312.871094 276.527344 314.773438 274.625 317.121094 274.625 C 319.46875 274.625 321.375 276.527344 321.375 278.875 C 321.375 281.222656 319.46875 283.128906 317.121094 283.128906 C 314.773438 283.128906 312.871094 281.222656 312.871094 278.875 Z M 312.871094 380.929688 C 312.871094 383.273438 314.777344 385.183594 317.121094 385.183594 C 324.15625 385.183594 329.878906 390.902344 329.878906 397.9375 C 329.878906 404.972656 324.15625 410.695312 317.121094 410.695312 L 308.617188 410.695312 C 306.269531 410.695312 304.363281 408.792969 304.363281 406.441406 C 304.363281 404.09375 306.269531 402.191406 308.617188 402.191406 L 317.121094 402.191406 C 319.464844 402.191406 321.375 400.28125 321.375 397.9375 C 321.375 395.59375 319.464844 393.6875 317.121094 393.6875 C 310.085938 393.6875 304.363281 387.964844 304.363281 380.929688 C 304.363281 373.894531 310.085938 368.171875 317.121094 368.171875 L 325.625 368.171875 C 327.976562 368.171875 329.878906 370.078125 329.878906 372.425781 C 329.878906 374.773438 327.976562 376.675781 325.625 376.675781 L 317.121094 376.675781 C 314.777344 376.675781 312.871094 378.585938 312.871094 380.929688 Z M 295.859375 372.425781 L 295.859375 397.9375 C 295.859375 404.972656 290.136719 410.695312 283.101562 410.695312 C 276.066406 410.695312 270.34375 404.972656 270.34375 397.9375 C 270.34375 395.589844 272.25 393.6875 274.597656 393.6875 C 276.945312 393.6875 278.851562 395.589844 278.851562 397.9375 C 278.851562 400.28125 280.757812 402.191406 283.101562 402.191406 C 285.445312 402.191406 287.355469 400.28125 287.355469 397.9375 L 287.355469 372.425781 C 287.355469 370.078125 289.257812 368.171875 291.605469 368.171875 C 293.957031 368.171875 295.859375 370.078125 295.859375 372.425781 Z M 372.402344 419.199219 L 227.820312 419.199219 C 216.097656 419.199219 206.558594 409.660156 206.558594 397.9375 L 206.558594 359.667969 L 393.664062 359.667969 L 393.664062 397.9375 C 393.664062 409.660156 384.125 419.199219 372.402344 419.199219 Z M 227.820312 181.074219 L 342.636719 181.074219 L 342.636719 202.335938 C 342.636719 218.75 355.988281 232.101562 372.402344 232.101562 L 393.664062 232.101562 L 393.664062 351.164062 L 206.558594 351.164062 L 206.558594 202.335938 C 206.558594 190.613281 216.097656 181.074219 227.820312 181.074219 Z M 351.140625 187.085938 L 387.652344 223.597656 L 372.402344 223.597656 C 360.679688 223.597656 351.140625 214.058594 351.140625 202.335938 Z M 349.894531 173.816406 C 349.097656 173.019531 348.015625 172.570312 346.890625 172.570312 L 227.820312 172.570312 C 211.40625 172.570312 198.054688 185.921875 198.054688 202.335938 L 198.054688 397.9375 C 198.054688 414.351562 211.40625 427.703125 227.820312 427.703125 L 372.402344 427.703125 C 388.816406 427.703125 402.171875 414.351562 402.171875 397.9375 L 402.171875 227.847656 C 402.171875 226.722656 401.722656 225.640625 400.925781 224.84375 L 349.894531 173.816406 "/>
</clipPath>
<linearGradient id="linear0" gradientUnits="userSpaceOnUse" x1="0.000540209" y1="0" x2="1" y2="0" gradientTransform="matrix(0,-255.13487,255.14661,0,300.11206,427.70439)">
<stop offset="0" style="stop-color:rgb(32.499695%,77.999878%,92.23938%);stop-opacity:1;"/>
<stop offset="0.00390625" style="stop-color:rgb(32.516479%,77.999878%,92.56897%);stop-opacity:1;"/>
<stop offset="0.0078125" style="stop-color:rgb(32.53479%,77.999878%,92.89856%);stop-opacity:1;"/>
<stop offset="0.0117188" style="stop-color:rgb(32.71637%,77.798462%,92.89093%);stop-opacity:1;"/>
<stop offset="0.015625" style="stop-color:rgb(32.899475%,77.598572%,92.883301%);stop-opacity:1;"/>
<stop offset="0.0195313" style="stop-color:rgb(32.746887%,77.400208%,92.69104%);stop-opacity:1;"/>
<stop offset="0.0234375" style="stop-color:rgb(32.595825%,77.203369%,92.498779%);stop-opacity:1;"/>
<stop offset="0.0273437" style="stop-color:rgb(32.746887%,77.012634%,92.698669%);stop-opacity:1;"/>
<stop offset="0.03125" style="stop-color:rgb(32.899475%,76.821899%,92.89856%);stop-opacity:1;"/>
<stop offset="0.0351562" style="stop-color:rgb(33.099365%,76.431274%,92.698669%);stop-opacity:1;"/>
<stop offset="0.0390625" style="stop-color:rgb(33.299255%,76.040649%,92.498779%);stop-opacity:1;"/>
<stop offset="0.046875" style="stop-color:rgb(33.299255%,75.849915%,92.518616%);stop-opacity:1;"/>
<stop offset="0.0546875" style="stop-color:rgb(33.308411%,75.469971%,92.718506%);stop-opacity:1;"/>
<stop offset="0.0585938" style="stop-color:rgb(33.509827%,74.888611%,92.89856%);stop-opacity:1;"/>
<stop offset="0.0625" style="stop-color:rgb(33.700562%,74.497986%,92.89856%);stop-opacity:1;"/>
<stop offset="0.0664062" style="stop-color:rgb(33.898926%,74.057007%,92.857361%);stop-opacity:1;"/>
<stop offset="0.0703125" style="stop-color:rgb(34.098816%,73.617554%,92.817688%);stop-opacity:1;"/>
<stop offset="0.0742188" style="stop-color:rgb(34.098816%,73.226929%,92.634583%);stop-opacity:1;"/>
<stop offset="0.078125" style="stop-color:rgb(34.098816%,72.836304%,92.453003%);stop-opacity:1;"/>
<stop offset="0.0820313" style="stop-color:rgb(34.120178%,72.496033%,92.126465%);stop-opacity:1;"/>
<stop offset="0.0859375" style="stop-color:rgb(34.143066%,72.155762%,91.799927%);stop-opacity:1;"/>
<stop offset="0.0898438" style="stop-color:rgb(34.532166%,71.765137%,91.598511%);stop-opacity:1;"/>
<stop offset="0.09375" style="stop-color:rgb(34.922791%,71.376038%,91.398621%);stop-opacity:1;"/>
<stop offset="0.0976562" style="stop-color:rgb(35.310364%,70.983887%,91.19873%);stop-opacity:1;"/>
<stop offset="0.101562" style="stop-color:rgb(35.699463%,70.593262%,90.99884%);stop-opacity:1;"/>
<stop offset="0.105469" style="stop-color:rgb(35.742188%,70.353699%,90.756226%);stop-opacity:1;"/>
<stop offset="0.109375" style="stop-color:rgb(35.784912%,70.114136%,90.513611%);stop-opacity:1;"/>
<stop offset="0.113281" style="stop-color:rgb(35.975647%,69.723511%,90.322876%);stop-opacity:1;"/>
<stop offset="0.117188" style="stop-color:rgb(36.166382%,69.332886%,90.132141%);stop-opacity:1;"/>
<stop offset="0.121094" style="stop-color:rgb(36.355591%,68.942261%,89.941406%);stop-opacity:1;"/>
<stop offset="0.125" style="stop-color:rgb(36.546326%,68.551636%,89.752197%);stop-opacity:1;"/>
<stop offset="0.128906" style="stop-color:rgb(36.932373%,68.174744%,89.561462%);stop-opacity:1;"/>
<stop offset="0.132812" style="stop-color:rgb(37.319946%,67.799377%,89.370728%);stop-opacity:1;"/>
<stop offset="0.136719" style="stop-color:rgb(37.658691%,67.643738%,89.179993%);stop-opacity:1;"/>
<stop offset="0.140625" style="stop-color:rgb(37.998962%,67.489624%,88.990784%);stop-opacity:1;"/>
<stop offset="0.144531" style="stop-color:rgb(38.243103%,67.048645%,88.594055%);stop-opacity:1;"/>
<stop offset="0.148438" style="stop-color:rgb(38.48877%,66.609192%,88.198853%);stop-opacity:1;"/>
<stop offset="0.152344" style="stop-color:rgb(38.679504%,66.218567%,87.998962%);stop-opacity:1;"/>
<stop offset="0.15625" style="stop-color:rgb(38.870239%,65.827942%,87.799072%);stop-opacity:1;"/>
<stop offset="0.160156" style="stop-color:rgb(39.059448%,65.463257%,87.649536%);stop-opacity:1;"/>
<stop offset="0.164063" style="stop-color:rgb(39.250183%,65.098572%,87.5%);stop-opacity:1;"/>
<stop offset="0.167969" style="stop-color:rgb(39.624023%,64.881897%,87.298584%);stop-opacity:1;"/>
<stop offset="0.171875" style="stop-color:rgb(39.99939%,64.666748%,87.098694%);stop-opacity:1;"/>
<stop offset="0.175781" style="stop-color:rgb(40.19928%,64.276123%,86.898804%);stop-opacity:1;"/>
<stop offset="0.179688" style="stop-color:rgb(40.39917%,63.885498%,86.698914%);stop-opacity:1;"/>
<stop offset="0.183594" style="stop-color:rgb(40.596008%,63.691711%,86.502075%);stop-opacity:1;"/>
<stop offset="0.1875" style="stop-color:rgb(40.792847%,63.499451%,86.305237%);stop-opacity:1;"/>
<stop offset="0.191406" style="stop-color:rgb(41.195679%,63.070679%,86.064148%);stop-opacity:1;"/>
<stop offset="0.195312" style="stop-color:rgb(41.598511%,62.643433%,85.824585%);stop-opacity:1;"/>
<stop offset="0.199219" style="stop-color:rgb(41.825867%,62.29248%,85.63385%);stop-opacity:1;"/>
<stop offset="0.203125" style="stop-color:rgb(42.054749%,61.943054%,85.443115%);stop-opacity:1;"/>
<stop offset="0.207031" style="stop-color:rgb(42.39502%,61.57074%,85.25238%);stop-opacity:1;"/>
<stop offset="0.210937" style="stop-color:rgb(42.735291%,61.199951%,85.063171%);stop-opacity:1;"/>
<stop offset="0.214844" style="stop-color:rgb(43.125916%,60.990906%,84.872437%);stop-opacity:1;"/>
<stop offset="0.21875" style="stop-color:rgb(43.516541%,60.78186%,84.681702%);stop-opacity:1;"/>
<stop offset="0.222656" style="stop-color:rgb(43.907166%,60.391235%,84.489441%);stop-opacity:1;"/>
<stop offset="0.226562" style="stop-color:rgb(44.297791%,60.00061%,84.298706%);stop-opacity:1;"/>
<stop offset="0.230469" style="stop-color:rgb(44.737244%,59.559631%,83.898926%);stop-opacity:1;"/>
<stop offset="0.234375" style="stop-color:rgb(45.178223%,59.120178%,83.499146%);stop-opacity:1;"/>
<stop offset="0.242188" style="stop-color:rgb(45.367432%,58.929443%,83.468628%);stop-opacity:1;"/>
<stop offset="0.246094" style="stop-color:rgb(45.948792%,58.349609%,83.248901%);stop-opacity:1;"/>
<stop offset="0.25" style="stop-color:rgb(46.339417%,57.958984%,83.058167%);stop-opacity:1;"/>
<stop offset="0.253906" style="stop-color:rgb(46.730042%,57.618713%,82.728577%);stop-opacity:1;"/>
<stop offset="0.257813" style="stop-color:rgb(47.120667%,57.278442%,82.398987%);stop-opacity:1;"/>
<stop offset="0.261719" style="stop-color:rgb(47.460938%,56.887817%,82.199097%);stop-opacity:1;"/>
<stop offset="0.265625" style="stop-color:rgb(47.801208%,56.497192%,81.999207%);stop-opacity:1;"/>
<stop offset="0.269531" style="stop-color:rgb(48.040771%,56.056213%,81.756592%);stop-opacity:1;"/>
<stop offset="0.273438" style="stop-color:rgb(48.28186%,55.61676%,81.515503%);stop-opacity:1;"/>
<stop offset="0.277344" style="stop-color:rgb(48.672485%,55.226135%,81.324768%);stop-opacity:1;"/>
<stop offset="0.28125" style="stop-color:rgb(49.06311%,54.83551%,81.135559%);stop-opacity:1;"/>
<stop offset="0.289063" style="stop-color:rgb(49.253845%,54.644775%,80.944824%);stop-opacity:1;"/>
<stop offset="0.292969" style="stop-color:rgb(49.833679%,54.063416%,80.563354%);stop-opacity:1;"/>
<stop offset="0.296875" style="stop-color:rgb(50.224304%,53.674316%,80.374146%);stop-opacity:1;"/>
<stop offset="0.300781" style="stop-color:rgb(50.614929%,53.286743%,80.186462%);stop-opacity:1;"/>
<stop offset="0.304688" style="stop-color:rgb(51.005554%,52.89917%,79.998779%);stop-opacity:1;"/>
<stop offset="0.308594" style="stop-color:rgb(51.202393%,52.705383%,79.804993%);stop-opacity:1;"/>
<stop offset="0.3125" style="stop-color:rgb(51.399231%,52.511597%,79.612732%);stop-opacity:1;"/>
<stop offset="0.316406" style="stop-color:rgb(51.799011%,52.120972%,79.405212%);stop-opacity:1;"/>
<stop offset="0.320313" style="stop-color:rgb(52.198792%,51.731873%,79.199219%);stop-opacity:1;"/>
<stop offset="0.324219" style="stop-color:rgb(52.372742%,51.365662%,78.999329%);stop-opacity:1;"/>
<stop offset="0.328125" style="stop-color:rgb(52.548218%,50.999451%,78.799438%);stop-opacity:1;"/>
<stop offset="0.332031" style="stop-color:rgb(52.737427%,50.784302%,78.599548%);stop-opacity:1;"/>
<stop offset="0.335938" style="stop-color:rgb(52.928162%,50.569153%,78.399658%);stop-opacity:1;"/>
<stop offset="0.339844" style="stop-color:rgb(53.318787%,50.178528%,78.199768%);stop-opacity:1;"/>
<stop offset="0.34375" style="stop-color:rgb(53.709412%,49.789429%,77.999878%);stop-opacity:1;"/>
<stop offset="0.347656" style="stop-color:rgb(53.903198%,49.594116%,77.80304%);stop-opacity:1;"/>
<stop offset="0.351562" style="stop-color:rgb(54.098511%,49.398804%,77.607727%);stop-opacity:1;"/>
<stop offset="0.355469" style="stop-color:rgb(54.498291%,48.962402%,77.575684%);stop-opacity:1;"/>
<stop offset="0.359375" style="stop-color:rgb(54.899597%,48.527527%,77.545166%);stop-opacity:1;"/>
<stop offset="0.367188" style="stop-color:rgb(54.925537%,48.336792%,77.39563%);stop-opacity:1;"/>
<stop offset="0.371094" style="stop-color:rgb(55.325317%,47.805786%,77.055359%);stop-opacity:1;"/>
<stop offset="0.375" style="stop-color:rgb(55.699158%,47.465515%,76.86615%);stop-opacity:1;"/>
<stop offset="0.378906" style="stop-color:rgb(55.906677%,47.08252%,76.683044%);stop-opacity:1;"/>
<stop offset="0.382812" style="stop-color:rgb(56.114197%,46.699524%,76.499939%);stop-opacity:1;"/>
<stop offset="0.386719" style="stop-color:rgb(56.503296%,46.699524%,76.301575%);stop-opacity:1;"/>
<stop offset="0.390625" style="stop-color:rgb(56.893921%,46.699524%,76.10321%);stop-opacity:1;"/>
<stop offset="0.394531" style="stop-color:rgb(57.096863%,46.261597%,76.062012%);stop-opacity:1;"/>
<stop offset="0.398438" style="stop-color:rgb(57.299805%,45.823669%,76.022339%);stop-opacity:1;"/>
<stop offset="0.40625" style="stop-color:rgb(57.478333%,45.632935%,75.831604%);stop-opacity:1;"/>
<stop offset="0.410156" style="stop-color:rgb(57.846069%,45.069885%,75.469971%);stop-opacity:1;"/>
<stop offset="0.414062" style="stop-color:rgb(58.036804%,44.699097%,75.299072%);stop-opacity:1;"/>
<stop offset="0.417969" style="stop-color:rgb(58.227539%,44.499207%,75.289917%);stop-opacity:1;"/>
<stop offset="0.421875" style="stop-color:rgb(58.418274%,44.299316%,75.280762%);stop-opacity:1;"/>
<stop offset="0.425781" style="stop-color:rgb(58.808899%,44.099426%,75.090027%);stop-opacity:1;"/>
<stop offset="0.429687" style="stop-color:rgb(59.199524%,43.899536%,74.899292%);stop-opacity:1;"/>
<stop offset="0.433594" style="stop-color:rgb(59.588623%,43.508911%,74.699402%);stop-opacity:1;"/>
<stop offset="0.4375" style="stop-color:rgb(59.979248%,43.118286%,74.499512%);stop-opacity:1;"/>
<stop offset="0.441406" style="stop-color:rgb(60.388184%,42.758179%,74.299622%);stop-opacity:1;"/>
<stop offset="0.445312" style="stop-color:rgb(60.798645%,42.399597%,74.099731%);stop-opacity:1;"/>
<stop offset="0.449219" style="stop-color:rgb(61.019897%,42.378235%,74.078369%);stop-opacity:1;"/>
<stop offset="0.453125" style="stop-color:rgb(61.24115%,42.356873%,74.057007%);stop-opacity:1;"/>
<stop offset="0.457031" style="stop-color:rgb(61.431885%,41.966248%,73.866272%);stop-opacity:1;"/>
<stop offset="0.460937" style="stop-color:rgb(61.62262%,41.575623%,73.677063%);stop-opacity:1;"/>
<stop offset="0.464844" style="stop-color:rgb(62.011719%,41.384888%,73.487854%);stop-opacity:1;"/>
<stop offset="0.46875" style="stop-color:rgb(62.402344%,41.195679%,73.298645%);stop-opacity:1;"/>
<stop offset="0.472656" style="stop-color:rgb(62.742615%,40.997314%,73.298645%);stop-opacity:1;"/>
<stop offset="0.476562" style="stop-color:rgb(63.084412%,40.79895%,73.298645%);stop-opacity:1;"/>
<stop offset="0.480469" style="stop-color:rgb(63.323975%,40.39917%,73.065186%);stop-opacity:1;"/>
<stop offset="0.484375" style="stop-color:rgb(63.565063%,39.99939%,72.833252%);stop-opacity:1;"/>
<stop offset="0.488281" style="stop-color:rgb(63.954163%,39.775085%,72.665405%);stop-opacity:1;"/>
<stop offset="0.492187" style="stop-color:rgb(64.344788%,39.552307%,72.499084%);stop-opacity:1;"/>
<stop offset="0.496094" style="stop-color:rgb(64.735413%,39.361572%,72.488403%);stop-opacity:1;"/>
<stop offset="0.5" style="stop-color:rgb(65.126038%,39.172363%,72.479248%);stop-opacity:1;"/>
<stop offset="0.503906" style="stop-color:rgb(65.316772%,38.78479%,72.338867%);stop-opacity:1;"/>
<stop offset="0.507812" style="stop-color:rgb(65.507507%,38.398743%,72.198486%);stop-opacity:1;"/>
<stop offset="0.511719" style="stop-color:rgb(65.896606%,38.398743%,72.0047%);stop-opacity:1;"/>
<stop offset="0.515625" style="stop-color:rgb(66.287231%,38.398743%,71.810913%);stop-opacity:1;"/>
<stop offset="0.519531" style="stop-color:rgb(66.52832%,38.163757%,71.80481%);stop-opacity:1;"/>
<stop offset="0.523438" style="stop-color:rgb(66.769409%,37.930298%,71.798706%);stop-opacity:1;"/>
<stop offset="0.527344" style="stop-color:rgb(67.134094%,37.763977%,71.772766%);stop-opacity:1;"/>
<stop offset="0.53125" style="stop-color:rgb(67.498779%,37.599182%,71.748352%);stop-opacity:1;"/>
<stop offset="0.539062" style="stop-color:rgb(67.663574%,37.432861%,71.572876%);stop-opacity:1;"/>
<stop offset="0.542969" style="stop-color:rgb(68.22052%,37.077332%,71.199036%);stop-opacity:1;"/>
<stop offset="0.546875" style="stop-color:rgb(68.611145%,36.886597%,70.999146%);stop-opacity:1;"/>
<stop offset="0.550781" style="stop-color:rgb(69.00177%,36.69281%,70.999146%);stop-opacity:1;"/>
<stop offset="0.554688" style="stop-color:rgb(69.392395%,36.499023%,70.999146%);stop-opacity:1;"/>
<stop offset="0.558594" style="stop-color:rgb(69.395447%,36.299133%,70.999146%);stop-opacity:1;"/>
<stop offset="0.5625" style="stop-color:rgb(69.398499%,36.099243%,70.999146%);stop-opacity:1;"/>
<stop offset="0.566406" style="stop-color:rgb(69.825745%,35.871887%,70.799255%);stop-opacity:1;"/>
<stop offset="0.570313" style="stop-color:rgb(70.252991%,35.644531%,70.599365%);stop-opacity:1;"/>
<stop offset="0.574219" style="stop-color:rgb(70.625305%,35.272217%,70.399475%);stop-opacity:1;"/>
<stop offset="0.578125" style="stop-color:rgb(70.999146%,34.899902%,70.199585%);stop-opacity:1;"/>
<stop offset="0.582031" style="stop-color:rgb(71.206665%,34.698486%,70.19043%);stop-opacity:1;"/>
<stop offset="0.585938" style="stop-color:rgb(71.41571%,34.498596%,70.1828%);stop-opacity:1;"/>
<stop offset="0.589844" style="stop-color:rgb(71.80481%,34.300232%,69.99054%);stop-opacity:1;"/>
<stop offset="0.59375" style="stop-color:rgb(72.195435%,34.101868%,69.799805%);stop-opacity:1;"/>
<stop offset="0.597656" style="stop-color:rgb(72.535706%,33.900452%,69.799805%);stop-opacity:1;"/>
<stop offset="0.601563" style="stop-color:rgb(72.877502%,33.699036%,69.799805%);stop-opacity:1;"/>
<stop offset="0.605469" style="stop-color:rgb(73.316956%,33.470154%,69.598389%);stop-opacity:1;"/>
<stop offset="0.609375" style="stop-color:rgb(73.757935%,33.241272%,69.398499%);stop-opacity:1;"/>
<stop offset="0.613281" style="stop-color:rgb(74.14856%,33.050537%,69.378662%);stop-opacity:1;"/>
<stop offset="0.617188" style="stop-color:rgb(74.539185%,32.859802%,69.360352%);stop-opacity:1;"/>
<stop offset="0.621094" style="stop-color:rgb(74.928284%,32.528687%,69.178772%);stop-opacity:1;"/>
<stop offset="0.625" style="stop-color:rgb(75.318909%,32.199097%,68.998718%);stop-opacity:1;"/>
<stop offset="0.628906" style="stop-color:rgb(75.709534%,31.999207%,68.998718%);stop-opacity:1;"/>
<stop offset="0.632813" style="stop-color:rgb(76.100159%,31.799316%,68.998718%);stop-opacity:1;"/>
<stop offset="0.636719" style="stop-color:rgb(76.300049%,31.608582%,68.798828%);stop-opacity:1;"/>
<stop offset="0.640625" style="stop-color:rgb(76.499939%,31.417847%,68.598938%);stop-opacity:1;"/>
<stop offset="0.644531" style="stop-color:rgb(76.922607%,31.176758%,68.399048%);stop-opacity:1;"/>
<stop offset="0.648438" style="stop-color:rgb(77.346802%,30.937195%,68.199158%);stop-opacity:1;"/>
<stop offset="0.652344" style="stop-color:rgb(77.694702%,30.567932%,68.199158%);stop-opacity:1;"/>
<stop offset="0.65625" style="stop-color:rgb(78.042603%,30.198669%,68.199158%);stop-opacity:1;"/>
<stop offset="0.660156" style="stop-color:rgb(78.433228%,29.998779%,67.999268%);stop-opacity:1;"/>
<stop offset="0.664063" style="stop-color:rgb(78.823853%,29.798889%,67.799377%);stop-opacity:1;"/>
<stop offset="0.667969" style="stop-color:rgb(79.214478%,29.595947%,67.796326%);stop-opacity:1;"/>
<stop offset="0.671875" style="stop-color:rgb(79.605103%,29.394531%,67.7948%);stop-opacity:1;"/>
<stop offset="0.675781" style="stop-color:rgb(79.994202%,29.003906%,67.64679%);stop-opacity:1;"/>
<stop offset="0.679688" style="stop-color:rgb(80.384827%,28.613281%,67.498779%);stop-opacity:1;"/>
<stop offset="0.683594" style="stop-color:rgb(80.775452%,28.422546%,67.498779%);stop-opacity:1;"/>
<stop offset="0.6875" style="stop-color:rgb(81.166077%,28.231812%,67.498779%);stop-opacity:1;"/>
<stop offset="0.691406" style="stop-color:rgb(81.60553%,27.996826%,67.298889%);stop-opacity:1;"/>
<stop offset="0.695312" style="stop-color:rgb(82.046509%,27.763367%,67.098999%);stop-opacity:1;"/>
<stop offset="0.699219" style="stop-color:rgb(82.58667%,27.430725%,66.899109%);stop-opacity:1;"/>
<stop offset="0.703125" style="stop-color:rgb(83.128357%,27.099609%,66.699219%);stop-opacity:1;"/>
<stop offset="0.707031" style="stop-color:rgb(83.517456%,26.893616%,66.694641%);stop-opacity:1;"/>
<stop offset="0.710938" style="stop-color:rgb(83.908081%,26.689148%,66.690063%);stop-opacity:1;"/>
<stop offset="0.714844" style="stop-color:rgb(84.298706%,26.298523%,66.494751%);stop-opacity:1;"/>
<stop offset="0.71875" style="stop-color:rgb(84.689331%,25.909424%,66.299438%);stop-opacity:1;"/>
<stop offset="0.722656" style="stop-color:rgb(85.264587%,25.718689%,66.113281%);stop-opacity:1;"/>
<stop offset="0.726562" style="stop-color:rgb(85.84137%,25.527954%,65.92865%);stop-opacity:1;"/>
<stop offset="0.730469" style="stop-color:rgb(86.096191%,25.112915%,65.913391%);stop-opacity:1;"/>
<stop offset="0.734375" style="stop-color:rgb(86.351013%,24.699402%,65.899658%);stop-opacity:1;"/>
<stop offset="0.738281" style="stop-color:rgb(86.724854%,24.499512%,65.699768%);stop-opacity:1;"/>
<stop offset="0.742188" style="stop-color:rgb(87.098694%,24.299622%,65.499878%);stop-opacity:1;"/>
<stop offset="0.746094" style="stop-color:rgb(87.298584%,24.099731%,65.292358%);stop-opacity:1;"/>
<stop offset="0.75" style="stop-color:rgb(87.5%,23.899841%,65.086365%);stop-opacity:1;"/>
<stop offset="0.753906" style="stop-color:rgb(87.646484%,23.899841%,64.69574%);stop-opacity:1;"/>
<stop offset="0.757812" style="stop-color:rgb(87.794495%,23.899841%,64.305115%);stop-opacity:1;"/>
<stop offset="0.761719" style="stop-color:rgb(87.983704%,23.899841%,63.91449%);stop-opacity:1;"/>
<stop offset="0.765625" style="stop-color:rgb(88.174438%,23.899841%,63.523865%);stop-opacity:1;"/>
<stop offset="0.769531" style="stop-color:rgb(88.214111%,23.670959%,63.061523%);stop-opacity:1;"/>
<stop offset="0.773438" style="stop-color:rgb(88.25531%,23.443604%,62.600708%);stop-opacity:1;"/>
<stop offset="0.777344" style="stop-color:rgb(88.446045%,23.271179%,62.081909%);stop-opacity:1;"/>
<stop offset="0.78125" style="stop-color:rgb(88.63678%,23.098755%,61.56311%);stop-opacity:1;"/>
<stop offset="0.785156" style="stop-color:rgb(88.818359%,22.898865%,61.16333%);stop-opacity:1;"/>
<stop offset="0.789062" style="stop-color:rgb(88.999939%,22.698975%,60.76355%);stop-opacity:1;"/>
<stop offset="0.792969" style="stop-color:rgb(89.198303%,22.698975%,60.18219%);stop-opacity:1;"/>
<stop offset="0.796875" style="stop-color:rgb(89.398193%,22.698975%,59.60083%);stop-opacity:1;"/>
<stop offset="0.800781" style="stop-color:rgb(89.398193%,22.557068%,59.010315%);stop-opacity:1;"/>
<stop offset="0.804688" style="stop-color:rgb(89.399719%,22.415161%,58.4198%);stop-opacity:1;"/>
<stop offset="0.808594" style="stop-color:rgb(89.599609%,22.407532%,57.893372%);stop-opacity:1;"/>
<stop offset="0.8125" style="stop-color:rgb(89.7995%,22.399902%,57.368469%);stop-opacity:1;"/>
<stop offset="0.816406" style="stop-color:rgb(89.99939%,22.37854%,56.712341%);stop-opacity:1;"/>
<stop offset="0.820312" style="stop-color:rgb(90.19928%,22.358704%,56.057739%);stop-opacity:1;"/>
<stop offset="0.824219" style="stop-color:rgb(90.39917%,22.17865%,55.656433%);stop-opacity:1;"/>
<stop offset="0.828125" style="stop-color:rgb(90.59906%,21.998596%,55.255127%);stop-opacity:1;"/>
<stop offset="0.832031" style="stop-color:rgb(90.59906%,22.198486%,54.675293%);stop-opacity:1;"/>
<stop offset="0.835937" style="stop-color:rgb(90.59906%,22.399902%,54.096985%);stop-opacity:1;"/>
<stop offset="0.839844" style="stop-color:rgb(90.789795%,22.399902%,53.514099%);stop-opacity:1;"/>
<stop offset="0.84375" style="stop-color:rgb(90.982056%,22.399902%,52.932739%);stop-opacity:1;"/>
<stop offset="0.847656" style="stop-color:rgb(90.989685%,22.198486%,52.397156%);stop-opacity:1;"/>
<stop offset="0.851562" style="stop-color:rgb(90.99884%,21.998596%,51.861572%);stop-opacity:1;"/>
<stop offset="0.855469" style="stop-color:rgb(91.021729%,21.998596%,51.385498%);stop-opacity:1;"/>
<stop offset="0.859375" style="stop-color:rgb(91.044617%,21.998596%,50.909424%);stop-opacity:1;"/>
<stop offset="0.863281" style="stop-color:rgb(91.221619%,21.984863%,50.340271%);stop-opacity:1;"/>
<stop offset="0.867187" style="stop-color:rgb(91.398621%,21.972656%,49.772644%);stop-opacity:1;"/>
<stop offset="0.871094" style="stop-color:rgb(91.598511%,21.784973%,49.182129%);stop-opacity:1;"/>
<stop offset="0.875" style="stop-color:rgb(91.799927%,21.598816%,48.59314%);stop-opacity:1;"/>
<stop offset="0.878906" style="stop-color:rgb(91.993713%,21.405029%,48.05603%);stop-opacity:1;"/>
<stop offset="0.882812" style="stop-color:rgb(92.1875%,21.211243%,47.520447%);stop-opacity:1;"/>
<stop offset="0.886719" style="stop-color:rgb(92.330933%,21.205139%,47.125244%);stop-opacity:1;"/>
<stop offset="0.890625" style="stop-color:rgb(92.475891%,21.199036%,46.731567%);stop-opacity:1;"/>
<stop offset="0.894531" style="stop-color:rgb(92.686462%,21.199036%,46.090698%);stop-opacity:1;"/>
<stop offset="0.898437" style="stop-color:rgb(92.89856%,21.199036%,45.449829%);stop-opacity:1;"/>
<stop offset="0.902344" style="stop-color:rgb(92.913818%,21.199036%,45.043945%);stop-opacity:1;"/>
<stop offset="0.90625" style="stop-color:rgb(92.929077%,21.199036%,44.639587%);stop-opacity:1;"/>
<stop offset="0.910156" style="stop-color:rgb(93.119812%,21.199036%,43.862915%);stop-opacity:1;"/>
<stop offset="0.914062" style="stop-color:rgb(93.310547%,21.199036%,43.087769%);stop-opacity:1;"/>
<stop offset="0.917969" style="stop-color:rgb(93.504333%,21.002197%,42.745972%);stop-opacity:1;"/>
<stop offset="0.921875" style="stop-color:rgb(93.699646%,20.806885%,42.405701%);stop-opacity:1;"/>
<stop offset="0.925781" style="stop-color:rgb(93.885803%,20.802307%,41.828918%);stop-opacity:1;"/>
<stop offset="0.929687" style="stop-color:rgb(94.07196%,20.799255%,41.253662%);stop-opacity:1;"/>
<stop offset="0.933594" style="stop-color:rgb(94.085693%,20.799255%,40.849304%);stop-opacity:1;"/>
<stop offset="0.9375" style="stop-color:rgb(94.099426%,20.799255%,40.446472%);stop-opacity:1;"/>
<stop offset="0.941406" style="stop-color:rgb(94.099426%,20.799255%,39.805603%);stop-opacity:1;"/>
<stop offset="0.945312" style="stop-color:rgb(94.099426%,20.799255%,39.164734%);stop-opacity:1;"/>
<stop offset="0.949219" style="stop-color:rgb(94.099426%,20.799255%,38.774109%);stop-opacity:1;"/>
<stop offset="0.953125" style="stop-color:rgb(94.099426%,20.799255%,38.383484%);stop-opacity:1;"/>
<stop offset="0.957031" style="stop-color:rgb(94.099426%,20.600891%,37.992859%);stop-opacity:1;"/>
<stop offset="0.960938" style="stop-color:rgb(94.099426%,20.404053%,37.60376%);stop-opacity:1;"/>
<stop offset="0.964844" style="stop-color:rgb(94.099426%,20.600891%,37.062073%);stop-opacity:1;"/>
<stop offset="0.96875" style="stop-color:rgb(94.099426%,20.799255%,36.521912%);stop-opacity:1;"/>
<stop offset="0.972656" style="stop-color:rgb(94.099426%,20.799255%,35.931396%);stop-opacity:1;"/>
<stop offset="0.976562" style="stop-color:rgb(94.099426%,20.799255%,35.342407%);stop-opacity:1;"/>
<stop offset="0.980469" style="stop-color:rgb(94.099426%,20.999146%,34.701538%);stop-opacity:1;"/>
<stop offset="0.984375" style="stop-color:rgb(94.099426%,21.199036%,34.060669%);stop-opacity:1;"/>
<stop offset="0.988281" style="stop-color:rgb(94.099426%,21.199036%,33.860779%);stop-opacity:1;"/>
<stop offset="0.992188" style="stop-color:rgb(94.099426%,21.199036%,33.660889%);stop-opacity:1;"/>
<stop offset="0.996094" style="stop-color:rgb(94.099426%,21.199036%,33.079529%);stop-opacity:1;"/>
<stop offset="1" style="stop-color:rgb(94.099426%,21.199036%,32.499695%);stop-opacity:1;"/>
</linearGradient>
</defs>
<g id="surface1">
<rect x="0" y="0" width="600" height="599.999999" style="fill:rgb(100%,100%,100%);fill-opacity:1;stroke:none;"/>
<rect x="0" y="0" width="600" height="599.999999" style="fill:rgb(100%,100%,100%);fill-opacity:1;stroke:none;"/>
<g clip-path="url(#clip1)" clip-rule="nonzero">
<g clip-path="url(#clip2)" clip-rule="nonzero">
<g clip-path="url(#clip3)" clip-rule="nonzero">
<path style=" stroke:none;fill-rule:nonzero;fill:url(#linear0);" d="M 198.054688 427.566406 L 402.054688 427.566406 L 402.054688 172.570312 L 198.054688 172.570312 Z M 198.054688 427.566406 "/>
</g>
</g>
</g>
</g>
</svg>
