<?xml version="1.0" encoding="UTF-8"?>
<svg xmlns="http://www.w3.org/2000/svg" xmlns:xlink="http://www.w3.org/1999/xlink" width="600pt" height="599.999999pt" viewBox="0 0 600 599.999999" version="1.2">
<defs>
<clipPath id="clip1">
  <path d="M 232 172.667969 L 362 172.667969 L 362 427.667969 L 232 427.667969 Z M 232 172.667969 "/>
</clipPath>
</defs>
<g id="surface1">
<rect x="0" y="0" width="600" height="599.999999" style="fill:rgb(100%,100%,100%);fill-opacity:1;stroke:none;"/>
<rect x="0" y="0" width="600" height="599.999999" style="fill:rgb(100%,100%,100%);fill-opacity:1;stroke:none;"/>
<path style=" stroke:none;fill-rule:nonzero;fill:rgb(38.038635%,11.369324%,90.979004%);fill-opacity:1;" d="M 277.5625 307.898438 C 277.5625 307.898438 270.851562 311.988281 282.230469 313.15625 C 295.941406 314.90625 303.234375 314.617188 318.40625 311.695312 C 318.40625 311.695312 322.488281 314.324219 328.03125 316.367188 C 293.898438 330.972656 250.722656 315.492188 277.5625 307.898438 Z M 273.1875 288.914062 C 273.1875 288.914062 265.894531 294.460938 277.273438 295.632812 C 292.148438 297.09375 303.820312 297.382812 323.949219 293.296875 C 323.949219 293.296875 326.574219 296.214844 330.949219 297.675781 C 289.816406 309.941406 243.722656 298.84375 273.1875 288.914062 Z M 353.707031 322.207031 C 353.707031 322.207031 358.664062 326.296875 348.164062 329.507812 C 328.617188 335.351562 266.1875 337.101562 248.683594 329.507812 C 242.558594 326.878906 254.226562 323.082031 258.019531 322.5 C 261.808594 321.621094 263.851562 321.621094 263.851562 321.621094 C 257.144531 316.949219 219.21875 331.261719 244.597656 335.351562 C 314.320312 346.742188 371.789062 330.386719 353.703125 322.207031 Z M 280.773438 269.050781 C 280.773438 269.050781 248.976562 276.644531 269.398438 279.273438 C 278.148438 280.441406 295.359375 280.148438 311.40625 278.980469 C 324.53125 277.8125 337.660156 275.472656 337.660156 275.472656 C 337.660156 275.472656 332.992188 277.519531 329.785156 279.5625 C 297.402344 288.03125 235.269531 284.234375 253.058594 275.472656 C 268.230469 268.171875 280.773438 269.046875 280.773438 269.046875 Z M 337.660156 300.886719 C 370.332031 283.945312 355.164062 267.589844 344.660156 269.632812 C 342.035156 270.21875 340.867188 270.800781 340.867188 270.800781 C 340.867188 270.800781 341.746094 269.050781 343.785156 268.464844 C 364.5 261.164062 380.835938 290.371094 337.078125 301.761719 C 337.078125 301.761719 337.367188 301.46875 337.660156 300.886719 Z M 283.984375 347.03125 C 315.488281 349.078125 363.617188 345.863281 364.792969 330.96875 C 364.792969 330.96875 362.457031 336.808594 338.828125 341.191406 C 311.992188 346.15625 278.734375 345.570312 259.195312 342.359375 C 259.195312 342.359375 263.277344 345.863281 283.992188 347.03125 Z M 283.984375 347.03125 "/>
<g clip-path="url(#clip1)" clip-rule="nonzero">
<path style=" stroke:none;fill-rule:nonzero;fill:rgb(95.689392%,26.269531%,21.179199%);fill-opacity:1;" d="M 317.820312 172.667969 C 317.820312 172.667969 335.90625 191.066406 300.609375 218.8125 C 272.3125 241.304688 294.191406 254.15625 300.609375 268.757812 C 283.980469 253.863281 272.019531 240.71875 280.1875 228.453125 C 292.152344 210.34375 325.117188 201.585938 317.824219 172.667969 Z M 308.492188 256.492188 C 316.949219 266.132812 306.15625 274.894531 306.15625 274.894531 C 306.15625 274.894531 327.746094 263.796875 317.824219 250.066406 C 308.78125 236.925781 301.78125 230.5 339.703125 208.597656 C 339.703125 208.597656 279.902344 223.496094 308.488281 256.5 Z M 286.898438 413.332031 L 286.898438 384.707031 C 286.898438 377.40625 282.816406 372.441406 272.605469 372.441406 C 266.769531 372.441406 261.8125 373.898438 257.4375 375.648438 L 258.894531 380.90625 C 262.097656 379.738281 266.1875 378.566406 270.5625 378.566406 C 276.105469 378.566406 278.730469 380.90625 278.730469 385.578125 L 278.730469 389.375 L 275.816406 389.375 C 261.8125 389.375 255.394531 394.632812 255.394531 403.101562 C 255.394531 410.113281 259.769531 414.199219 267.648438 414.199219 C 272.605469 414.199219 276.398438 411.863281 279.898438 408.941406 L 280.484375 413.324219 L 286.902344 413.324219 Z M 278.730469 403.984375 C 275.8125 406.613281 272.605469 408.074219 269.6875 408.074219 C 265.894531 408.074219 263.5625 405.738281 263.5625 401.648438 C 263.5625 397.558594 265.894531 394.636719 275.230469 394.636719 L 278.730469 394.636719 Z M 314.320312 413.332031 L 304.113281 413.332031 L 291.859375 373.316406 L 300.613281 373.316406 L 308.195312 397.851562 L 309.945312 405.152344 C 313.738281 394.636719 316.65625 383.832031 317.824219 373.316406 L 326.574219 373.316406 C 324.242188 386.460938 320.15625 400.769531 314.324219 413.332031 Z M 361.582031 413.332031 L 361.582031 384.707031 C 361.582031 377.40625 357.496094 372.441406 347.285156 372.441406 C 341.453125 372.441406 336.492188 373.898438 332.117188 375.648438 L 333.285156 380.90625 C 336.785156 379.738281 340.867188 378.566406 345.246094 378.566406 C 350.789062 378.566406 353.414062 380.90625 353.414062 385.578125 L 353.414062 389.375 L 350.496094 389.375 C 336.492188 389.375 330.074219 394.632812 330.074219 403.101562 C 330.074219 410.113281 334.160156 414.199219 342.035156 414.199219 C 347.285156 414.199219 351.078125 411.863281 354.578125 408.941406 L 355.164062 413.324219 L 361.582031 413.324219 Z M 353.414062 403.984375 C 350.496094 406.613281 347.285156 408.074219 344.367188 408.074219 C 340.578125 408.074219 338.242188 405.738281 338.242188 401.648438 C 338.242188 397.558594 340.578125 394.636719 349.910156 394.636719 L 353.414062 394.636719 Z M 246.351562 420.046875 C 244.019531 423.554688 240.515625 426.179688 236.140625 427.640625 L 232.347656 422.972656 C 235.265625 421.21875 238.179688 418.589844 239.347656 416.253906 C 240.515625 414.210938 240.808594 411.289062 240.808594 404.570312 L 240.808594 359.007812 L 249.558594 359.007812 L 249.558594 403.988281 C 249.558594 413.039062 248.683594 416.546875 246.355469 420.050781 Z M 246.351562 420.046875 "/>
</g>
</g>
</svg>
