<?xml version="1.0" encoding="UTF-8"?>
<svg xmlns="http://www.w3.org/2000/svg" xmlns:xlink="http://www.w3.org/1999/xlink" width="600pt" height="599.999999pt" viewBox="0 0 600 599.999999" version="1.2">
<defs>
<clipPath id="clip1">
  <path d="M 198.148438 172.683594 L 402.144531 172.683594 L 402.144531 427.683594 L 198.148438 427.683594 Z M 198.148438 172.683594 "/>
</clipPath>
<clipPath id="clip2">
  <path d="M 279.011719 262.066406 C 279.011719 250.332031 288.558594 240.785156 300.292969 240.785156 C 312.027344 240.785156 321.574219 250.332031 321.574219 262.066406 C 321.574219 272.339844 314.25 280.941406 304.550781 282.917969 L 304.550781 296.113281 C 304.550781 298.464844 302.644531 300.371094 300.292969 300.371094 C 297.941406 300.371094 296.035156 298.464844 296.035156 296.113281 L 296.035156 279.089844 C 296.035156 276.738281 297.941406 274.832031 300.292969 274.832031 C 307.332031 274.832031 313.0625 269.105469 313.0625 262.066406 C 313.0625 255.023438 307.332031 249.296875 300.292969 249.296875 C 293.253906 249.296875 287.523438 255.023438 287.523438 262.066406 C 287.523438 264.414062 285.621094 266.320312 283.269531 266.320312 C 280.917969 266.320312 279.011719 264.414062 279.011719 262.066406 Z M 304.550781 313.140625 C 304.550781 315.492188 302.644531 317.394531 300.292969 317.394531 C 297.941406 317.394531 296.035156 315.492188 296.035156 313.140625 C 296.035156 310.789062 297.941406 308.882812 300.292969 308.882812 C 302.644531 308.882812 304.550781 310.789062 304.550781 313.140625 Z M 331.332031 301.617188 L 353.859375 279.089844 L 331.332031 256.5625 C 329.667969 254.898438 329.667969 252.207031 331.332031 250.542969 C 332.992188 248.878906 335.6875 248.878906 337.351562 250.542969 L 362.886719 276.082031 C 364.546875 277.742188 364.546875 280.4375 362.886719 282.097656 L 337.351562 307.636719 C 336.519531 308.46875 335.429688 308.882812 334.339844 308.882812 C 333.25 308.882812 332.164062 308.46875 331.332031 307.636719 C 329.667969 305.972656 329.667969 303.28125 331.332031 301.617188 Z M 237.699219 282.097656 C 236.039062 280.4375 236.039062 277.742188 237.699219 276.082031 L 263.234375 250.542969 C 264.898438 248.878906 267.59375 248.878906 269.253906 250.542969 C 270.917969 252.207031 270.917969 254.898438 269.253906 256.5625 L 246.726562 279.089844 L 269.253906 301.617188 C 270.917969 303.28125 270.917969 305.972656 269.253906 307.636719 C 268.421875 308.46875 267.335938 308.882812 266.246094 308.882812 C 265.15625 308.882812 264.066406 308.46875 263.234375 307.636719 Z M 313.0625 372.726562 L 313.0625 406.777344 C 313.0625 409.128906 311.15625 411.035156 308.804688 411.035156 C 306.453125 411.035156 304.550781 409.128906 304.550781 406.777344 L 304.550781 394.007812 L 296.035156 394.007812 L 296.035156 406.777344 C 296.035156 409.128906 294.132812 411.035156 291.78125 411.035156 C 289.429688 411.035156 287.523438 409.128906 287.523438 406.777344 L 287.523438 372.726562 C 287.523438 370.378906 289.429688 368.472656 291.78125 368.472656 C 294.132812 368.472656 296.035156 370.378906 296.035156 372.726562 L 296.035156 385.496094 L 304.550781 385.496094 L 304.550781 372.726562 C 304.550781 370.378906 306.453125 368.472656 308.804688 368.472656 C 311.15625 368.472656 313.0625 370.378906 313.0625 372.726562 Z M 266.246094 385.496094 L 261.988281 385.496094 L 261.988281 376.984375 L 266.246094 376.984375 C 268.589844 376.984375 270.5 378.894531 270.5 381.238281 C 270.5 383.585938 268.589844 385.496094 266.246094 385.496094 Z M 266.246094 368.472656 L 257.734375 368.472656 C 255.382812 368.472656 253.476562 370.378906 253.476562 372.726562 L 253.476562 406.777344 C 253.476562 409.128906 255.382812 411.035156 257.734375 411.035156 C 260.082031 411.035156 261.988281 409.128906 261.988281 406.777344 L 261.988281 394.007812 L 266.246094 394.007812 C 273.285156 394.007812 279.011719 388.28125 279.011719 381.238281 C 279.011719 374.199219 273.285156 368.472656 266.246094 368.472656 Z M 334.339844 385.496094 L 330.085938 385.496094 L 330.085938 376.984375 L 334.339844 376.984375 C 336.6875 376.984375 338.597656 378.894531 338.597656 381.238281 C 338.597656 383.585938 336.6875 385.496094 334.339844 385.496094 Z M 334.339844 368.472656 L 325.828125 368.472656 C 323.476562 368.472656 321.574219 370.378906 321.574219 372.726562 L 321.574219 406.777344 C 321.574219 409.128906 323.476562 411.035156 325.828125 411.035156 C 328.179688 411.035156 330.085938 409.128906 330.085938 406.777344 L 330.085938 394.007812 L 334.339844 394.007812 C 341.382812 394.007812 347.109375 388.28125 347.109375 381.238281 C 347.109375 374.199219 341.382812 368.472656 334.339844 368.472656 Z M 372.644531 419.546875 L 227.941406 419.546875 C 216.207031 419.546875 206.660156 410 206.660156 398.265625 L 206.660156 359.957031 L 393.925781 359.957031 L 393.925781 398.265625 C 393.925781 410 384.378906 419.546875 372.644531 419.546875 Z M 227.941406 181.195312 L 342.851562 181.195312 L 342.851562 202.476562 C 342.851562 218.90625 356.21875 232.269531 372.644531 232.269531 L 393.925781 232.269531 L 393.925781 351.445312 L 206.660156 351.445312 L 206.660156 202.476562 C 206.660156 190.742188 216.207031 181.195312 227.941406 181.195312 Z M 351.363281 187.214844 L 387.90625 223.757812 L 372.644531 223.757812 C 360.910156 223.757812 351.363281 214.210938 351.363281 202.476562 Z M 350.117188 173.929688 C 349.320312 173.132812 348.238281 172.683594 347.109375 172.683594 L 227.941406 172.683594 C 211.515625 172.683594 198.148438 186.046875 198.148438 202.476562 L 198.148438 398.265625 C 198.148438 414.695312 211.515625 428.058594 227.941406 428.058594 L 372.644531 428.058594 C 389.070312 428.058594 402.4375 414.695312 402.4375 398.265625 L 402.4375 228.015625 C 402.4375 226.886719 401.988281 225.804688 401.1875 225.003906 Z M 350.117188 173.929688 "/>
</clipPath>
<clipPath id="clip3">
  <path d="M 279.011719 262.066406 C 279.011719 250.332031 288.558594 240.785156 300.292969 240.785156 C 312.027344 240.785156 321.574219 250.332031 321.574219 262.066406 C 321.574219 272.339844 314.25 280.941406 304.550781 282.917969 L 304.550781 296.113281 C 304.550781 298.464844 302.644531 300.371094 300.292969 300.371094 C 297.941406 300.371094 296.035156 298.464844 296.035156 296.113281 L 296.035156 279.089844 C 296.035156 276.738281 297.941406 274.832031 300.292969 274.832031 C 307.332031 274.832031 313.0625 269.105469 313.0625 262.066406 C 313.0625 255.023438 307.332031 249.296875 300.292969 249.296875 C 293.253906 249.296875 287.523438 255.023438 287.523438 262.066406 C 287.523438 264.414062 285.621094 266.320312 283.269531 266.320312 C 280.917969 266.320312 279.011719 264.414062 279.011719 262.066406 Z M 304.550781 313.140625 C 304.550781 315.492188 302.644531 317.394531 300.292969 317.394531 C 297.941406 317.394531 296.035156 315.492188 296.035156 313.140625 C 296.035156 310.789062 297.941406 308.882812 300.292969 308.882812 C 302.644531 308.882812 304.550781 310.789062 304.550781 313.140625 Z M 331.332031 301.617188 L 353.859375 279.089844 L 331.332031 256.5625 C 329.667969 254.898438 329.667969 252.207031 331.332031 250.542969 C 332.992188 248.878906 335.6875 248.878906 337.351562 250.542969 L 362.886719 276.082031 C 364.546875 277.742188 364.546875 280.4375 362.886719 282.097656 L 337.351562 307.636719 C 336.519531 308.46875 335.429688 308.882812 334.339844 308.882812 C 333.25 308.882812 332.164062 308.46875 331.332031 307.636719 C 329.667969 305.972656 329.667969 303.28125 331.332031 301.617188 Z M 237.699219 282.097656 C 236.039062 280.4375 236.039062 277.742188 237.699219 276.082031 L 263.234375 250.542969 C 264.898438 248.878906 267.59375 248.878906 269.253906 250.542969 C 270.917969 252.207031 270.917969 254.898438 269.253906 256.5625 L 246.726562 279.089844 L 269.253906 301.617188 C 270.917969 303.28125 270.917969 305.972656 269.253906 307.636719 C 268.421875 308.46875 267.335938 308.882812 266.246094 308.882812 C 265.15625 308.882812 264.066406 308.46875 263.234375 307.636719 Z M 313.0625 372.726562 L 313.0625 406.777344 C 313.0625 409.128906 311.15625 411.035156 308.804688 411.035156 C 306.453125 411.035156 304.550781 409.128906 304.550781 406.777344 L 304.550781 394.007812 L 296.035156 394.007812 L 296.035156 406.777344 C 296.035156 409.128906 294.132812 411.035156 291.78125 411.035156 C 289.429688 411.035156 287.523438 409.128906 287.523438 406.777344 L 287.523438 372.726562 C 287.523438 370.378906 289.429688 368.472656 291.78125 368.472656 C 294.132812 368.472656 296.035156 370.378906 296.035156 372.726562 L 296.035156 385.496094 L 304.550781 385.496094 L 304.550781 372.726562 C 304.550781 370.378906 306.453125 368.472656 308.804688 368.472656 C 311.15625 368.472656 313.0625 370.378906 313.0625 372.726562 Z M 266.246094 385.496094 L 261.988281 385.496094 L 261.988281 376.984375 L 266.246094 376.984375 C 268.589844 376.984375 270.5 378.894531 270.5 381.238281 C 270.5 383.585938 268.589844 385.496094 266.246094 385.496094 Z M 266.246094 368.472656 L 257.734375 368.472656 C 255.382812 368.472656 253.476562 370.378906 253.476562 372.726562 L 253.476562 406.777344 C 253.476562 409.128906 255.382812 411.035156 257.734375 411.035156 C 260.082031 411.035156 261.988281 409.128906 261.988281 406.777344 L 261.988281 394.007812 L 266.246094 394.007812 C 273.285156 394.007812 279.011719 388.28125 279.011719 381.238281 C 279.011719 374.199219 273.285156 368.472656 266.246094 368.472656 Z M 334.339844 385.496094 L 330.085938 385.496094 L 330.085938 376.984375 L 334.339844 376.984375 C 336.6875 376.984375 338.597656 378.894531 338.597656 381.238281 C 338.597656 383.585938 336.6875 385.496094 334.339844 385.496094 Z M 334.339844 368.472656 L 325.828125 368.472656 C 323.476562 368.472656 321.574219 370.378906 321.574219 372.726562 L 321.574219 406.777344 C 321.574219 409.128906 323.476562 411.035156 325.828125 411.035156 C 328.179688 411.035156 330.085938 409.128906 330.085938 406.777344 L 330.085938 394.007812 L 334.339844 394.007812 C 341.382812 394.007812 347.109375 388.28125 347.109375 381.238281 C 347.109375 374.199219 341.382812 368.472656 334.339844 368.472656 Z M 372.644531 419.546875 L 227.941406 419.546875 C 216.207031 419.546875 206.660156 410 206.660156 398.265625 L 206.660156 359.957031 L 393.925781 359.957031 L 393.925781 398.265625 C 393.925781 410 384.378906 419.546875 372.644531 419.546875 Z M 227.941406 181.195312 L 342.851562 181.195312 L 342.851562 202.476562 C 342.851562 218.90625 356.21875 232.269531 372.644531 232.269531 L 393.925781 232.269531 L 393.925781 351.445312 L 206.660156 351.445312 L 206.660156 202.476562 C 206.660156 190.742188 216.207031 181.195312 227.941406 181.195312 Z M 351.363281 187.214844 L 387.90625 223.757812 L 372.644531 223.757812 C 360.910156 223.757812 351.363281 214.210938 351.363281 202.476562 Z M 350.117188 173.929688 C 349.320312 173.132812 348.238281 172.683594 347.109375 172.683594 L 227.941406 172.683594 C 211.515625 172.683594 198.148438 186.046875 198.148438 202.476562 L 198.148438 398.265625 C 198.148438 414.695312 211.515625 428.058594 227.941406 428.058594 L 372.644531 428.058594 C 389.070312 428.058594 402.4375 414.695312 402.4375 398.265625 L 402.4375 228.015625 C 402.4375 226.886719 401.988281 225.804688 401.1875 225.003906 L 350.117188 173.929688 "/>
</clipPath>
<linearGradient id="linear0" gradientUnits="userSpaceOnUse" x1="0.00147053" y1="0" x2="1" y2="0" gradientTransform="matrix(0,-255.3755,255.35791,0,300.29303,428.05882)">
<stop offset="0" style="stop-color:rgb(32.499695%,77.999878%,92.30957%);stop-opacity:1;"/>
<stop offset="0.00390625" style="stop-color:rgb(32.562256%,77.999878%,92.604065%);stop-opacity:1;"/>
<stop offset="0.0078125" style="stop-color:rgb(32.626343%,77.999878%,92.89856%);stop-opacity:1;"/>
<stop offset="0.0117188" style="stop-color:rgb(32.762146%,77.798462%,92.845154%);stop-opacity:1;"/>
<stop offset="0.015625" style="stop-color:rgb(32.899475%,77.598572%,92.791748%);stop-opacity:1;"/>
<stop offset="0.0195312" style="stop-color:rgb(32.792664%,77.354431%,92.645264%);stop-opacity:1;"/>
<stop offset="0.0234375" style="stop-color:rgb(32.685852%,77.111816%,92.498779%);stop-opacity:1;"/>
<stop offset="0.0273438" style="stop-color:rgb(32.792664%,76.921082%,92.698669%);stop-opacity:1;"/>
<stop offset="0.03125" style="stop-color:rgb(32.899475%,76.731873%,92.89856%);stop-opacity:1;"/>
<stop offset="0.0351562" style="stop-color:rgb(33.099365%,76.341248%,92.698669%);stop-opacity:1;"/>
<stop offset="0.0390625" style="stop-color:rgb(33.299255%,75.952148%,92.498779%);stop-opacity:1;"/>
<stop offset="0.046875" style="stop-color:rgb(33.299255%,75.761414%,92.562866%);stop-opacity:1;"/>
<stop offset="0.0546875" style="stop-color:rgb(33.352661%,75.38147%,92.762756%);stop-opacity:1;"/>
<stop offset="0.0585938" style="stop-color:rgb(33.612061%,74.786377%,92.89856%);stop-opacity:1;"/>
<stop offset="0.0625" style="stop-color:rgb(33.816528%,74.382019%,92.89856%);stop-opacity:1;"/>
<stop offset="0.0664062" style="stop-color:rgb(33.956909%,73.956299%,92.814636%);stop-opacity:1;"/>
<stop offset="0.0703125" style="stop-color:rgb(34.098816%,73.530579%,92.730713%);stop-opacity:1;"/>
<stop offset="0.0742188" style="stop-color:rgb(34.098816%,73.139954%,92.559814%);stop-opacity:1;"/>
<stop offset="0.078125" style="stop-color:rgb(34.098816%,72.750854%,92.388916%);stop-opacity:1;"/>
<stop offset="0.0820312" style="stop-color:rgb(34.162903%,72.410583%,92.094421%);stop-opacity:1;"/>
<stop offset="0.0859375" style="stop-color:rgb(34.22699%,72.070312%,91.799927%);stop-opacity:1;"/>
<stop offset="0.0898438" style="stop-color:rgb(34.617615%,71.679688%,91.598511%);stop-opacity:1;"/>
<stop offset="0.09375" style="stop-color:rgb(35.00824%,71.290588%,91.398621%);stop-opacity:1;"/>
<stop offset="0.0976562" style="stop-color:rgb(35.353088%,70.88623%,91.19873%);stop-opacity:1;"/>
<stop offset="0.101562" style="stop-color:rgb(35.699463%,70.481873%,90.99884%);stop-opacity:1;"/>
<stop offset="0.105469" style="stop-color:rgb(35.783386%,70.256042%,90.715027%);stop-opacity:1;"/>
<stop offset="0.109375" style="stop-color:rgb(35.86731%,70.030212%,90.431213%);stop-opacity:1;"/>
<stop offset="0.113281" style="stop-color:rgb(36.056519%,69.639587%,90.240479%);stop-opacity:1;"/>
<stop offset="0.117188" style="stop-color:rgb(36.247253%,69.250488%,90.05127%);stop-opacity:1;"/>
<stop offset="0.121094" style="stop-color:rgb(36.436462%,68.859863%,89.860535%);stop-opacity:1;"/>
<stop offset="0.125" style="stop-color:rgb(36.627197%,68.470764%,89.671326%);stop-opacity:1;"/>
<stop offset="0.128906" style="stop-color:rgb(37.004089%,68.135071%,89.480591%);stop-opacity:1;"/>
<stop offset="0.132812" style="stop-color:rgb(37.380981%,67.799377%,89.289856%);stop-opacity:1;"/>
<stop offset="0.136719" style="stop-color:rgb(37.689209%,67.604065%,89.099121%);stop-opacity:1;"/>
<stop offset="0.140625" style="stop-color:rgb(37.998962%,67.410278%,88.909912%);stop-opacity:1;"/>
<stop offset="0.144531" style="stop-color:rgb(38.282776%,66.969299%,88.554382%);stop-opacity:1;"/>
<stop offset="0.148438" style="stop-color:rgb(38.568115%,66.529846%,88.198853%);stop-opacity:1;"/>
<stop offset="0.152344" style="stop-color:rgb(38.757324%,66.139221%,87.998962%);stop-opacity:1;"/>
<stop offset="0.15625" style="stop-color:rgb(38.948059%,65.750122%,87.799072%);stop-opacity:1;"/>
<stop offset="0.160156" style="stop-color:rgb(39.137268%,65.423584%,87.649536%);stop-opacity:1;"/>
<stop offset="0.164062" style="stop-color:rgb(39.328003%,65.098572%,87.5%);stop-opacity:1;"/>
<stop offset="0.167969" style="stop-color:rgb(39.663696%,64.84375%,87.298584%);stop-opacity:1;"/>
<stop offset="0.171875" style="stop-color:rgb(39.99939%,64.590454%,87.098694%);stop-opacity:1;"/>
<stop offset="0.175781" style="stop-color:rgb(40.19928%,64.199829%,86.898804%);stop-opacity:1;"/>
<stop offset="0.179688" style="stop-color:rgb(40.39917%,63.809204%,86.698914%);stop-opacity:1;"/>
<stop offset="0.183594" style="stop-color:rgb(40.644836%,63.607788%,86.499023%);stop-opacity:1;"/>
<stop offset="0.1875" style="stop-color:rgb(40.892029%,63.406372%,86.299133%);stop-opacity:1;"/>
<stop offset="0.191406" style="stop-color:rgb(41.244507%,62.995911%,86.024475%);stop-opacity:1;"/>
<stop offset="0.195312" style="stop-color:rgb(41.598511%,62.586975%,85.749817%);stop-opacity:1;"/>
<stop offset="0.199219" style="stop-color:rgb(41.864014%,62.228394%,85.559082%);stop-opacity:1;"/>
<stop offset="0.203125" style="stop-color:rgb(42.129517%,61.869812%,85.369873%);stop-opacity:1;"/>
<stop offset="0.207031" style="stop-color:rgb(42.468262%,61.534119%,85.179138%);stop-opacity:1;"/>
<stop offset="0.210938" style="stop-color:rgb(42.808533%,61.199951%,84.989929%);stop-opacity:1;"/>
<stop offset="0.214844" style="stop-color:rgb(43.199158%,60.954285%,84.799194%);stop-opacity:1;"/>
<stop offset="0.21875" style="stop-color:rgb(43.589783%,60.708618%,84.609985%);stop-opacity:1;"/>
<stop offset="0.222656" style="stop-color:rgb(43.991089%,60.307312%,84.407043%);stop-opacity:1;"/>
<stop offset="0.226562" style="stop-color:rgb(44.392395%,59.906006%,84.205627%);stop-opacity:1;"/>
<stop offset="0.230469" style="stop-color:rgb(44.821167%,59.477234%,83.851624%);stop-opacity:1;"/>
<stop offset="0.234375" style="stop-color:rgb(45.249939%,59.048462%,83.499146%);stop-opacity:1;"/>
<stop offset="0.242188" style="stop-color:rgb(45.439148%,58.857727%,83.433533%);stop-opacity:1;"/>
<stop offset="0.246094" style="stop-color:rgb(46.018982%,58.277893%,83.178711%);stop-opacity:1;"/>
<stop offset="0.25" style="stop-color:rgb(46.409607%,57.888794%,82.989502%);stop-opacity:1;"/>
<stop offset="0.253906" style="stop-color:rgb(46.798706%,57.548523%,82.693481%);stop-opacity:1;"/>
<stop offset="0.257812" style="stop-color:rgb(47.189331%,57.208252%,82.398987%);stop-opacity:1;"/>
<stop offset="0.261719" style="stop-color:rgb(47.529602%,56.817627%,82.199097%);stop-opacity:1;"/>
<stop offset="0.265625" style="stop-color:rgb(47.869873%,56.428528%,81.999207%);stop-opacity:1;"/>
<stop offset="0.269531" style="stop-color:rgb(48.109436%,55.987549%,81.723022%);stop-opacity:1;"/>
<stop offset="0.273437" style="stop-color:rgb(48.350525%,55.548096%,81.448364%);stop-opacity:1;"/>
<stop offset="0.277344" style="stop-color:rgb(48.739624%,55.157471%,81.257629%);stop-opacity:1;"/>
<stop offset="0.28125" style="stop-color:rgb(49.130249%,54.768372%,81.06842%);stop-opacity:1;"/>
<stop offset="0.289063" style="stop-color:rgb(49.319458%,54.577637%,80.877686%);stop-opacity:1;"/>
<stop offset="0.292969" style="stop-color:rgb(49.899292%,53.997803%,80.497742%);stop-opacity:1;"/>
<stop offset="0.296875" style="stop-color:rgb(50.289917%,53.608704%,80.308533%);stop-opacity:1;"/>
<stop offset="0.300781" style="stop-color:rgb(50.679016%,53.253174%,80.152893%);stop-opacity:1;"/>
<stop offset="0.304688" style="stop-color:rgb(51.069641%,52.89917%,79.998779%);stop-opacity:1;"/>
<stop offset="0.308594" style="stop-color:rgb(51.268005%,52.67334%,79.798889%);stop-opacity:1;"/>
<stop offset="0.3125" style="stop-color:rgb(51.467896%,52.44751%,79.598999%);stop-opacity:1;"/>
<stop offset="0.316406" style="stop-color:rgb(51.832581%,52.056885%,79.399109%);stop-opacity:1;"/>
<stop offset="0.320312" style="stop-color:rgb(52.198792%,51.667786%,79.199219%);stop-opacity:1;"/>
<stop offset="0.324219" style="stop-color:rgb(52.404785%,51.333618%,78.999329%);stop-opacity:1;"/>
<stop offset="0.328125" style="stop-color:rgb(52.610779%,50.999451%,78.799438%);stop-opacity:1;"/>
<stop offset="0.332031" style="stop-color:rgb(52.799988%,50.753784%,78.599548%);stop-opacity:1;"/>
<stop offset="0.335937" style="stop-color:rgb(52.990723%,50.508118%,78.399658%);stop-opacity:1;"/>
<stop offset="0.339844" style="stop-color:rgb(53.379822%,50.117493%,78.199768%);stop-opacity:1;"/>
<stop offset="0.34375" style="stop-color:rgb(53.770447%,49.728394%,77.999878%);stop-opacity:1;"/>
<stop offset="0.347656" style="stop-color:rgb(53.968811%,49.528503%,77.798462%);stop-opacity:1;"/>
<stop offset="0.351563" style="stop-color:rgb(54.168701%,49.330139%,77.598572%);stop-opacity:1;"/>
<stop offset="0.355469" style="stop-color:rgb(54.533386%,48.898315%,77.549744%);stop-opacity:1;"/>
<stop offset="0.359375" style="stop-color:rgb(54.899597%,48.468018%,77.500916%);stop-opacity:1;"/>
<stop offset="0.367188" style="stop-color:rgb(54.954529%,48.277283%,77.34375%);stop-opacity:1;"/>
<stop offset="0.371094" style="stop-color:rgb(55.354309%,47.747803%,76.997375%);stop-opacity:1;"/>
<stop offset="0.375" style="stop-color:rgb(55.699158%,47.407532%,76.806641%);stop-opacity:1;"/>
<stop offset="0.378906" style="stop-color:rgb(55.934143%,47.053528%,76.652527%);stop-opacity:1;"/>
<stop offset="0.382812" style="stop-color:rgb(56.170654%,46.699524%,76.499939%);stop-opacity:1;"/>
<stop offset="0.386719" style="stop-color:rgb(56.533813%,46.673584%,76.298523%);stop-opacity:1;"/>
<stop offset="0.390625" style="stop-color:rgb(56.898499%,46.647644%,76.098633%);stop-opacity:1;"/>
<stop offset="0.394531" style="stop-color:rgb(57.098389%,46.206665%,76.03302%);stop-opacity:1;"/>
<stop offset="0.398437" style="stop-color:rgb(57.299805%,45.767212%,75.967407%);stop-opacity:1;"/>
<stop offset="0.402344" style="stop-color:rgb(57.505798%,45.576477%,75.776672%);stop-opacity:1;"/>
<stop offset="0.40625" style="stop-color:rgb(57.711792%,45.387268%,75.587463%);stop-opacity:1;"/>
<stop offset="0.410156" style="stop-color:rgb(57.901001%,45.042419%,75.442505%);stop-opacity:1;"/>
<stop offset="0.414063" style="stop-color:rgb(58.091736%,44.699097%,75.299072%);stop-opacity:1;"/>
<stop offset="0.417969" style="stop-color:rgb(58.280945%,44.499207%,75.262451%);stop-opacity:1;"/>
<stop offset="0.421875" style="stop-color:rgb(58.47168%,44.299316%,75.227356%);stop-opacity:1;"/>
<stop offset="0.425781" style="stop-color:rgb(58.860779%,44.07196%,75.036621%);stop-opacity:1;"/>
<stop offset="0.429688" style="stop-color:rgb(59.251404%,43.84613%,74.845886%);stop-opacity:1;"/>
<stop offset="0.433594" style="stop-color:rgb(59.646606%,43.450928%,74.671936%);stop-opacity:1;"/>
<stop offset="0.4375" style="stop-color:rgb(60.043335%,43.055725%,74.499512%);stop-opacity:1;"/>
<stop offset="0.441406" style="stop-color:rgb(60.420227%,42.727661%,74.299622%);stop-opacity:1;"/>
<stop offset="0.445312" style="stop-color:rgb(60.798645%,42.399597%,74.099731%);stop-opacity:1;"/>
<stop offset="0.449219" style="stop-color:rgb(61.044312%,42.352295%,74.052429%);stop-opacity:1;"/>
<stop offset="0.453125" style="stop-color:rgb(61.291504%,42.306519%,74.006653%);stop-opacity:1;"/>
<stop offset="0.457031" style="stop-color:rgb(61.482239%,41.915894%,73.815918%);stop-opacity:1;"/>
<stop offset="0.460937" style="stop-color:rgb(61.672974%,41.526794%,73.626709%);stop-opacity:1;"/>
<stop offset="0.464844" style="stop-color:rgb(62.055969%,41.33606%,73.461914%);stop-opacity:1;"/>
<stop offset="0.46875" style="stop-color:rgb(62.438965%,41.146851%,73.298645%);stop-opacity:1;"/>
<stop offset="0.472656" style="stop-color:rgb(62.768555%,40.950012%,73.275757%);stop-opacity:1;"/>
<stop offset="0.476563" style="stop-color:rgb(63.09967%,40.7547%,73.254395%);stop-opacity:1;"/>
<stop offset="0.480469" style="stop-color:rgb(63.356018%,40.376282%,73.019409%);stop-opacity:1;"/>
<stop offset="0.484375" style="stop-color:rgb(63.612366%,39.99939%,72.78595%);stop-opacity:1;"/>
<stop offset="0.488281" style="stop-color:rgb(64.001465%,39.752197%,72.642517%);stop-opacity:1;"/>
<stop offset="0.492188" style="stop-color:rgb(64.39209%,39.506531%,72.499084%);stop-opacity:1;"/>
<stop offset="0.496094" style="stop-color:rgb(64.782715%,39.315796%,72.471619%);stop-opacity:1;"/>
<stop offset="0.5" style="stop-color:rgb(65.17334%,39.125061%,72.444153%);stop-opacity:1;"/>
<stop offset="0.503906" style="stop-color:rgb(65.362549%,38.761902%,72.320557%);stop-opacity:1;"/>
<stop offset="0.507812" style="stop-color:rgb(65.553284%,38.398743%,72.198486%);stop-opacity:1;"/>
<stop offset="0.511719" style="stop-color:rgb(65.925598%,38.381958%,71.998596%);stop-opacity:1;"/>
<stop offset="0.515625" style="stop-color:rgb(66.299438%,38.365173%,71.798706%);stop-opacity:1;"/>
<stop offset="0.519531" style="stop-color:rgb(66.555786%,38.12561%,71.798706%);stop-opacity:1;"/>
<stop offset="0.523438" style="stop-color:rgb(66.81366%,37.886047%,71.798706%);stop-opacity:1;"/>
<stop offset="0.527344" style="stop-color:rgb(67.155457%,37.742615%,71.751404%);stop-opacity:1;"/>
<stop offset="0.53125" style="stop-color:rgb(67.498779%,37.599182%,71.705627%);stop-opacity:1;"/>
<stop offset="0.539062" style="stop-color:rgb(67.684937%,37.411499%,71.551514%);stop-opacity:1;"/>
<stop offset="0.542969" style="stop-color:rgb(68.263245%,37.034607%,71.199036%);stop-opacity:1;"/>
<stop offset="0.546875" style="stop-color:rgb(68.65387%,36.845398%,70.999146%);stop-opacity:1;"/>
<stop offset="0.550781" style="stop-color:rgb(69.026184%,36.654663%,70.999146%);stop-opacity:1;"/>
<stop offset="0.554688" style="stop-color:rgb(69.398499%,36.465454%,70.999146%);stop-opacity:1;"/>
<stop offset="0.5625" style="stop-color:rgb(69.407654%,36.271667%,70.98999%);stop-opacity:1;"/>
<stop offset="0.566406" style="stop-color:rgb(69.856262%,35.84137%,70.7901%);stop-opacity:1;"/>
<stop offset="0.570312" style="stop-color:rgb(70.294189%,35.604858%,70.599365%);stop-opacity:1;"/>
<stop offset="0.574219" style="stop-color:rgb(70.646667%,35.25238%,70.399475%);stop-opacity:1;"/>
<stop offset="0.578125" style="stop-color:rgb(70.999146%,34.899902%,70.199585%);stop-opacity:1;"/>
<stop offset="0.582031" style="stop-color:rgb(71.226501%,34.698486%,70.172119%);stop-opacity:1;"/>
<stop offset="0.585938" style="stop-color:rgb(71.453857%,34.498596%,70.144653%);stop-opacity:1;"/>
<stop offset="0.589844" style="stop-color:rgb(71.839905%,34.281921%,69.972229%);stop-opacity:1;"/>
<stop offset="0.59375" style="stop-color:rgb(72.225952%,34.065247%,69.799805%);stop-opacity:1;"/>
<stop offset="0.597656" style="stop-color:rgb(72.572327%,33.87146%,69.789124%);stop-opacity:1;"/>
<stop offset="0.601562" style="stop-color:rgb(72.918701%,33.679199%,69.779968%);stop-opacity:1;"/>
<stop offset="0.605469" style="stop-color:rgb(73.356628%,33.441162%,69.589233%);stop-opacity:1;"/>
<stop offset="0.609375" style="stop-color:rgb(73.794556%,33.204651%,69.398499%);stop-opacity:1;"/>
<stop offset="0.613281" style="stop-color:rgb(74.183655%,33.013916%,69.360352%);stop-opacity:1;"/>
<stop offset="0.617188" style="stop-color:rgb(74.57428%,32.824707%,69.32373%);stop-opacity:1;"/>
<stop offset="0.621094" style="stop-color:rgb(74.963379%,32.511902%,69.160461%);stop-opacity:1;"/>
<stop offset="0.625" style="stop-color:rgb(75.354004%,32.199097%,68.998718%);stop-opacity:1;"/>
<stop offset="0.628906" style="stop-color:rgb(75.743103%,31.999207%,68.980408%);stop-opacity:1;"/>
<stop offset="0.632812" style="stop-color:rgb(76.133728%,31.799316%,68.963623%);stop-opacity:1;"/>
<stop offset="0.636719" style="stop-color:rgb(76.324463%,31.591797%,68.780518%);stop-opacity:1;"/>
<stop offset="0.640625" style="stop-color:rgb(76.515198%,31.384277%,68.598938%);stop-opacity:1;"/>
<stop offset="0.644531" style="stop-color:rgb(76.942444%,31.143188%,68.399048%);stop-opacity:1;"/>
<stop offset="0.648438" style="stop-color:rgb(77.371216%,30.903625%,68.199158%);stop-opacity:1;"/>
<stop offset="0.652344" style="stop-color:rgb(77.722168%,30.551147%,68.199158%);stop-opacity:1;"/>
<stop offset="0.65625" style="stop-color:rgb(78.074646%,30.198669%,68.199158%);stop-opacity:1;"/>
<stop offset="0.660156" style="stop-color:rgb(78.463745%,29.998779%,67.999268%);stop-opacity:1;"/>
<stop offset="0.664062" style="stop-color:rgb(78.85437%,29.798889%,67.799377%);stop-opacity:1;"/>
<stop offset="0.667969" style="stop-color:rgb(79.244995%,29.580688%,67.785645%);stop-opacity:1;"/>
<stop offset="0.671875" style="stop-color:rgb(79.63562%,29.364014%,67.771912%);stop-opacity:1;"/>
<stop offset="0.675781" style="stop-color:rgb(80.024719%,28.981018%,67.634583%);stop-opacity:1;"/>
<stop offset="0.679688" style="stop-color:rgb(80.415344%,28.599548%,67.498779%);stop-opacity:1;"/>
<stop offset="0.683594" style="stop-color:rgb(80.804443%,28.401184%,67.498779%);stop-opacity:1;"/>
<stop offset="0.6875" style="stop-color:rgb(81.195068%,28.20282%,67.498779%);stop-opacity:1;"/>
<stop offset="0.691406" style="stop-color:rgb(81.634521%,27.972412%,67.298889%);stop-opacity:1;"/>
<stop offset="0.695312" style="stop-color:rgb(82.0755%,27.742004%,67.098999%);stop-opacity:1;"/>
<stop offset="0.699219" style="stop-color:rgb(82.615662%,27.420044%,66.899109%);stop-opacity:1;"/>
<stop offset="0.703125" style="stop-color:rgb(83.155823%,27.099609%,66.699219%);stop-opacity:1;"/>
<stop offset="0.707031" style="stop-color:rgb(83.544922%,26.881409%,66.680908%);stop-opacity:1;"/>
<stop offset="0.710938" style="stop-color:rgb(83.935547%,26.663208%,66.662598%);stop-opacity:1;"/>
<stop offset="0.714844" style="stop-color:rgb(84.324646%,26.280212%,66.481018%);stop-opacity:1;"/>
<stop offset="0.71875" style="stop-color:rgb(84.715271%,25.898743%,66.299438%);stop-opacity:1;"/>
<stop offset="0.722656" style="stop-color:rgb(85.302734%,25.700378%,66.101074%);stop-opacity:1;"/>
<stop offset="0.726562" style="stop-color:rgb(85.891724%,25.502014%,65.90271%);stop-opacity:1;"/>
<stop offset="0.730469" style="stop-color:rgb(86.132812%,25.100708%,65.901184%);stop-opacity:1;"/>
<stop offset="0.734375" style="stop-color:rgb(86.375427%,24.699402%,65.899658%);stop-opacity:1;"/>
<stop offset="0.738281" style="stop-color:rgb(86.737061%,24.499512%,65.699768%);stop-opacity:1;"/>
<stop offset="0.742188" style="stop-color:rgb(87.098694%,24.299622%,65.499878%);stop-opacity:1;"/>
<stop offset="0.746094" style="stop-color:rgb(87.298584%,24.099731%,65.280151%);stop-opacity:1;"/>
<stop offset="0.75" style="stop-color:rgb(87.5%,23.899841%,65.061951%);stop-opacity:1;"/>
<stop offset="0.753906" style="stop-color:rgb(87.649536%,23.899841%,64.671326%);stop-opacity:1;"/>
<stop offset="0.757812" style="stop-color:rgb(87.799072%,23.899841%,64.282227%);stop-opacity:1;"/>
<stop offset="0.761719" style="stop-color:rgb(87.997437%,23.899841%,63.891602%);stop-opacity:1;"/>
<stop offset="0.765625" style="stop-color:rgb(88.195801%,23.899841%,63.502502%);stop-opacity:1;"/>
<stop offset="0.769531" style="stop-color:rgb(88.235474%,23.660278%,63.032532%);stop-opacity:1;"/>
<stop offset="0.773438" style="stop-color:rgb(88.276672%,23.422241%,62.564087%);stop-opacity:1;"/>
<stop offset="0.777344" style="stop-color:rgb(88.465881%,23.260498%,62.052917%);stop-opacity:1;"/>
<stop offset="0.78125" style="stop-color:rgb(88.656616%,23.098755%,61.541748%);stop-opacity:1;"/>
<stop offset="0.785156" style="stop-color:rgb(88.827515%,22.898865%,61.132812%);stop-opacity:1;"/>
<stop offset="0.789062" style="stop-color:rgb(88.999939%,22.698975%,60.725403%);stop-opacity:1;"/>
<stop offset="0.792969" style="stop-color:rgb(89.199829%,22.698975%,60.144043%);stop-opacity:1;"/>
<stop offset="0.796875" style="stop-color:rgb(89.399719%,22.698975%,59.564209%);stop-opacity:1;"/>
<stop offset="0.800781" style="stop-color:rgb(89.399719%,22.549438%,58.982849%);stop-opacity:1;"/>
<stop offset="0.804688" style="stop-color:rgb(89.399719%,22.401428%,58.401489%);stop-opacity:1;"/>
<stop offset="0.808594" style="stop-color:rgb(89.599609%,22.399902%,57.868958%);stop-opacity:1;"/>
<stop offset="0.8125" style="stop-color:rgb(89.7995%,22.399902%,57.337952%);stop-opacity:1;"/>
<stop offset="0.816406" style="stop-color:rgb(89.99939%,22.370911%,56.689453%);stop-opacity:1;"/>
<stop offset="0.820312" style="stop-color:rgb(90.19928%,22.341919%,56.040955%);stop-opacity:1;"/>
<stop offset="0.824219" style="stop-color:rgb(90.39917%,22.169495%,55.632019%);stop-opacity:1;"/>
<stop offset="0.828125" style="stop-color:rgb(90.59906%,21.998596%,55.223083%);stop-opacity:1;"/>
<stop offset="0.832031" style="stop-color:rgb(90.59906%,22.198486%,54.652405%);stop-opacity:1;"/>
<stop offset="0.835938" style="stop-color:rgb(90.59906%,22.399902%,54.081726%);stop-opacity:1;"/>
<stop offset="0.839844" style="stop-color:rgb(90.797424%,22.399902%,53.492737%);stop-opacity:1;"/>
<stop offset="0.84375" style="stop-color:rgb(90.997314%,22.399902%,52.903748%);stop-opacity:1;"/>
<stop offset="0.847656" style="stop-color:rgb(90.997314%,22.198486%,52.36969%);stop-opacity:1;"/>
<stop offset="0.851562" style="stop-color:rgb(90.99884%,21.998596%,51.837158%);stop-opacity:1;"/>
<stop offset="0.855469" style="stop-color:rgb(91.027832%,21.998596%,51.359558%);stop-opacity:1;"/>
<stop offset="0.859375" style="stop-color:rgb(91.056824%,21.998596%,50.883484%);stop-opacity:1;"/>
<stop offset="0.863281" style="stop-color:rgb(91.227722%,21.97876%,50.32196%);stop-opacity:1;"/>
<stop offset="0.867188" style="stop-color:rgb(91.398621%,21.960449%,49.760437%);stop-opacity:1;"/>
<stop offset="0.871094" style="stop-color:rgb(91.598511%,21.77887%,49.169922%);stop-opacity:1;"/>
<stop offset="0.875" style="stop-color:rgb(91.799927%,21.598816%,48.580933%);stop-opacity:1;"/>
<stop offset="0.878906" style="stop-color:rgb(91.998291%,21.398926%,48.040771%);stop-opacity:1;"/>
<stop offset="0.882812" style="stop-color:rgb(92.198181%,21.200562%,47.502136%);stop-opacity:1;"/>
<stop offset="0.886719" style="stop-color:rgb(92.340088%,21.199036%,47.111511%);stop-opacity:1;"/>
<stop offset="0.890625" style="stop-color:rgb(92.483521%,21.199036%,46.720886%);stop-opacity:1;"/>
<stop offset="0.894531" style="stop-color:rgb(92.69104%,21.199036%,46.080017%);stop-opacity:1;"/>
<stop offset="0.898438" style="stop-color:rgb(92.89856%,21.199036%,45.440674%);stop-opacity:1;"/>
<stop offset="0.902344" style="stop-color:rgb(92.918396%,21.199036%,45.030212%);stop-opacity:1;"/>
<stop offset="0.90625" style="stop-color:rgb(92.938232%,21.199036%,44.621277%);stop-opacity:1;"/>
<stop offset="0.910156" style="stop-color:rgb(93.127441%,21.199036%,43.850708%);stop-opacity:1;"/>
<stop offset="0.914062" style="stop-color:rgb(93.318176%,21.199036%,43.080139%);stop-opacity:1;"/>
<stop offset="0.917969" style="stop-color:rgb(93.508911%,20.999146%,42.739868%);stop-opacity:1;"/>
<stop offset="0.921875" style="stop-color:rgb(93.699646%,20.800781%,42.399597%);stop-opacity:1;"/>
<stop offset="0.925781" style="stop-color:rgb(93.888855%,20.799255%,41.819763%);stop-opacity:1;"/>
<stop offset="0.929688" style="stop-color:rgb(94.078064%,20.799255%,41.241455%);stop-opacity:1;"/>
<stop offset="0.933594" style="stop-color:rgb(94.088745%,20.799255%,40.840149%);stop-opacity:1;"/>
<stop offset="0.9375" style="stop-color:rgb(94.099426%,20.799255%,40.440369%);stop-opacity:1;"/>
<stop offset="0.941406" style="stop-color:rgb(94.099426%,20.799255%,39.7995%);stop-opacity:1;"/>
<stop offset="0.945312" style="stop-color:rgb(94.099426%,20.799255%,39.160156%);stop-opacity:1;"/>
<stop offset="0.949219" style="stop-color:rgb(94.099426%,20.799255%,38.769531%);stop-opacity:1;"/>
<stop offset="0.953125" style="stop-color:rgb(94.099426%,20.799255%,38.380432%);stop-opacity:1;"/>
<stop offset="0.957031" style="stop-color:rgb(94.099426%,20.599365%,37.989807%);stop-opacity:1;"/>
<stop offset="0.960938" style="stop-color:rgb(94.099426%,20.399475%,37.599182%);stop-opacity:1;"/>
<stop offset="0.964844" style="stop-color:rgb(94.099426%,20.599365%,37.059021%);stop-opacity:1;"/>
<stop offset="0.96875" style="stop-color:rgb(94.099426%,20.799255%,36.520386%);stop-opacity:1;"/>
<stop offset="0.972656" style="stop-color:rgb(94.099426%,20.799255%,35.929871%);stop-opacity:1;"/>
<stop offset="0.976562" style="stop-color:rgb(94.099426%,20.799255%,35.339355%);stop-opacity:1;"/>
<stop offset="0.980469" style="stop-color:rgb(94.099426%,20.999146%,34.698486%);stop-opacity:1;"/>
<stop offset="0.984375" style="stop-color:rgb(94.099426%,21.199036%,34.059143%);stop-opacity:1;"/>
<stop offset="0.988281" style="stop-color:rgb(94.099426%,21.199036%,33.859253%);stop-opacity:1;"/>
<stop offset="0.992188" style="stop-color:rgb(94.099426%,21.199036%,33.659363%);stop-opacity:1;"/>
<stop offset="0.996094" style="stop-color:rgb(94.099426%,21.199036%,33.079529%);stop-opacity:1;"/>
<stop offset="1" style="stop-color:rgb(94.099426%,21.199036%,32.499695%);stop-opacity:1;"/>
</linearGradient>
</defs>
<g id="surface1">
<rect x="0" y="0" width="600" height="599.999999" style="fill:rgb(100%,100%,100%);fill-opacity:1;stroke:none;"/>
<rect x="0" y="0" width="600" height="599.999999" style="fill:rgb(100%,100%,100%);fill-opacity:1;stroke:none;"/>
<g clip-path="url(#clip1)" clip-rule="nonzero">
<g clip-path="url(#clip2)" clip-rule="nonzero">
<g clip-path="url(#clip3)" clip-rule="nonzero">
<path style=" stroke:none;fill-rule:nonzero;fill:url(#linear0);" d="M 198.148438 427.683594 L 402.144531 427.683594 L 402.144531 172.683594 L 198.148438 172.683594 Z M 198.148438 427.683594 "/>
</g>
</g>
</g>
</g>
</svg>
