<?xml version="1.0" encoding="UTF-8"?>
<svg xmlns="http://www.w3.org/2000/svg" xmlns:xlink="http://www.w3.org/1999/xlink" width="600pt" height="599.999999pt" viewBox="0 0 600 599.999999" version="1.2">
<defs>
<clipPath id="clip1">
  <path d="M 178 205.9375 L 423 205.9375 L 423 394.1875 L 178 394.1875 Z M 178 205.9375 "/>
</clipPath>
</defs>
<g id="surface1">
<rect x="0" y="0" width="600" height="599.999999" style="fill:rgb(100%,100%,100%);fill-opacity:1;stroke:none;"/>
<rect x="0" y="0" width="600" height="599.999999" style="fill:rgb(100%,100%,100%);fill-opacity:1;stroke:none;"/>
<g clip-path="url(#clip1)" clip-rule="nonzero">
<path style=" stroke:none;fill-rule:nonzero;fill:rgb(38.038635%,11.369324%,90.979004%);fill-opacity:1;" d="M 290.195312 205.949219 C 279.28125 205.949219 267.757812 207.996094 256.871094 211.867188 C 243.832031 216.503906 219.175781 226.890625 200.554688 244.316406 C 181.652344 262.015625 176.988281 279.039062 178.925781 289.078125 C 182.554688 307.894531 200.625 320.777344 214.363281 330.25 C 204.328125 336.398438 193.429688 344.867188 189.066406 354.523438 C 184.945312 363.632812 184.726562 373.015625 188.425781 380.941406 C 191.1875 386.859375 195.90625 391.25 201.042969 392.679688 C 204.601562 393.671875 208.277344 394.171875 211.96875 394.171875 C 226.558594 394.171875 240.949219 386.207031 249.542969 373.386719 C 250.828125 371.464844 251.941406 369.464844 252.890625 367.421875 C 253.414062 368.042969 253.957031 368.632812 254.515625 369.164062 C 259.203125 373.609375 264.792969 373.605469 266.628906 373.605469 C 272.292969 373.605469 276.277344 371.152344 279.152344 368.101562 C 281.554688 369.699219 284.378906 370.550781 287.417969 370.550781 C 287.785156 370.550781 288.167969 370.546875 288.527344 370.503906 C 294.617188 369.757812 301.1875 363.8125 301.1875 363.8125 C 301.441406 364.03125 301.695312 364.238281 301.972656 364.445312 C 304.558594 366.394531 307.8125 367.34375 311.910156 367.34375 C 312.59375 367.34375 313.296875 367.328125 314.007812 367.277344 C 319.019531 366.941406 322.796875 365.742188 325.171875 364.742188 C 327.5625 363.867188 331.023438 362.324219 334.480469 359.78125 C 335.320312 359.164062 336.117188 358.515625 336.863281 357.828125 C 338.386719 358.753906 340.105469 359.421875 341.972656 359.800781 C 342.882812 359.984375 343.835938 360.078125 344.8125 360.078125 C 347.390625 360.078125 350.179688 359.445312 353.328125 358.152344 C 355.886719 357.269531 359.578125 355.6875 363.261719 352.984375 C 371.792969 346.703125 375.945312 339.238281 375.59375 330.816406 C 375.582031 330.558594 375.5625 330.296875 375.542969 330.03125 C 376.804688 329.894531 378.105469 329.832031 379.449219 329.832031 C 381.109375 329.832031 382.859375 329.941406 384.644531 330.144531 C 396.328125 331.515625 398.835938 337.03125 398.792969 338.859375 C 398.71875 339.339844 397.886719 340.113281 397.109375 340.59375 C 392.167969 343.652344 390.109375 347.625 390.988281 352.398438 C 391.921875 357.566406 396.257812 361.1875 401.53125 361.1875 C 402.535156 361.1875 403.410156 361.0625 404.140625 360.9375 C 410.40625 359.878906 422.34375 352.097656 422.894531 338.113281 C 423.21875 329.996094 419.894531 321.6875 413.785156 315.324219 C 406.109375 307.332031 394.855469 302.933594 382.089844 302.933594 L 381.792969 302.933594 C 376.519531 302.964844 371.402344 303.6875 366.484375 305.089844 L 366.332031 303.976562 C 366.03125 301.875 365.917969 301.085938 366.160156 299.257812 C 366.375 297.617188 367.378906 294.648438 367.863281 293.214844 C 368.542969 291.214844 369.039062 289.769531 368.867188 287.632812 C 368.535156 283.460938 365.070312 276.375 354.210938 276.296875 L 353.902344 276.296875 C 344.253906 276.296875 338.289062 279.101562 336.183594 284.636719 C 335.917969 285.328125 335.609375 286.238281 335.285156 287.289062 C 333.03125 284.917969 329.410156 283.046875 323.863281 283.007812 L 323.546875 283.007812 C 322.394531 283.007812 321.296875 283.054688 320.253906 283.132812 C 334.175781 270.226562 343.050781 251.691406 338.527344 233.929688 C 334.132812 216.671875 315.613281 205.949219 290.195312 205.949219 Z M 290.183594 215.707031 C 309.730469 215.707031 325.699219 223.019531 329.09375 236.351562 C 334.0625 255.84375 317.144531 279.15625 295.492188 287.539062 C 284.242188 291.894531 274.121094 293.3125 266.332031 293.3125 C 260.742188 293.3125 256.351562 292.578125 253.609375 291.675781 C 246.140625 289.222656 241.757812 284.304688 240.691406 281.523438 C 240.273438 280.4375 239.550781 278.605469 240.691406 277.972656 C 240.886719 277.863281 241.054688 277.789062 241.226562 277.789062 C 241.679688 277.789062 242.207031 278.253906 243.550781 279.746094 C 245.113281 281.46875 250.816406 285.738281 261.367188 285.738281 C 262.851562 285.738281 264.441406 285.660156 266.121094 285.46875 C 301.855469 281.460938 323.378906 253.667969 316.582031 238.714844 C 314.082031 233.226562 305.316406 229.324219 292.574219 229.324219 C 281.03125 229.324219 266.21875 232.535156 249.855469 240.699219 C 207.847656 261.644531 205.574219 278.910156 205.214844 285.46875 C 204.230469 303.511719 227.460938 313.007812 240.03125 326.429688 C 240.199219 326.609375 240.359375 326.78125 240.519531 326.957031 C 242.875 325.660156 245.355469 324.292969 247.789062 322.957031 C 254.128906 319.46875 260.097656 316.203125 262.886719 314.683594 C 267.3125 308.25 276.296875 301.152344 282.777344 301.152344 C 293.144531 301.152344 289.570312 316.050781 289.570312 316.050781 C 289.570312 316.050781 289.785156 315.359375 290.070312 315.351562 C 290.292969 315.347656 291.023438 314.195312 292.804688 314.195312 C 293.339844 314.195312 293.960938 314.296875 294.699219 314.566406 C 297.992188 315.773438 297.246094 318.085938 297.265625 318.320312 C 297.304688 318.777344 293.378906 332.023438 291.742188 340.515625 C 290.964844 344.566406 291.417969 347.515625 291.648438 347.515625 C 291.972656 347.515625 292.625 346.476562 293.234375 345.371094 L 293.226562 345.339844 C 293.226562 345.339844 293.683594 344.511719 294.449219 343.003906 C 294.550781 342.804688 294.605469 342.679688 294.605469 342.679688 C 294.605469 342.679688 294.613281 342.691406 294.613281 342.691406 C 295.515625 340.914062 296.785156 338.316406 298.25 335.085938 C 301.125 328.742188 312.101562 304.265625 313.03125 301.554688 C 313.960938 298.84375 314.449219 296.039062 314.90625 294.84375 C 315.355469 293.667969 319.101562 292.777344 323.535156 292.777344 L 323.773438 292.777344 C 328.3125 292.808594 328.765625 294.738281 328.796875 295.140625 C 328.832031 295.542969 326.636719 300.910156 326.136719 304.707031 C 325.640625 308.5 326.121094 310.40625 326.53125 313.589844 C 326.804688 315.679688 328.105469 318.324219 329.640625 321.320312 C 334.328125 313.640625 342.589844 298.957031 343.386719 294.84375 C 343.933594 292.035156 344.808594 289.335938 345.265625 288.140625 C 345.714844 286.964844 349.464844 286.0625 353.894531 286.0625 L 354.125 286.0625 C 358.660156 286.097656 359.121094 288.035156 359.15625 288.4375 C 359.191406 288.839844 356.996094 294.210938 356.496094 298.003906 C 355.996094 301.796875 356.476562 303.691406 356.886719 306.878906 C 357.242188 309.605469 359.355469 313.28125 361.441406 317.449219 C 367.148438 314.636719 373.957031 312.738281 381.820312 312.699219 L 382.070312 312.699219 C 402.246094 312.699219 413.625 325.8125 413.152344 337.75 C 412.800781 347.171875 404.140625 351.0625 402.535156 351.335938 C 402.140625 351.402344 401.804688 351.449219 401.53125 351.449219 C 400.984375 351.449219 400.675781 351.253906 400.5625 350.644531 C 400.445312 350.015625 400.867188 349.722656 402.238281 348.875 C 403.609375 348.027344 407.707031 345.210938 408.4375 340.09375 C 409.171875 334.976562 405.332031 322.753906 385.773438 320.464844 C 383.546875 320.207031 381.445312 320.09375 379.449219 320.09375 C 373.261719 320.09375 368.144531 321.25 363.96875 322.992188 C 364.996094 325.65625 365.753906 328.425781 365.871094 331.21875 C 366.125 337.355469 361.890625 341.890625 357.492188 345.132812 C 354.929688 347.019531 352.175781 348.277344 349.894531 349.039062 C 348.367188 349.683594 346.421875 350.339844 344.8125 350.339844 C 344.492188 350.339844 344.183594 350.3125 343.894531 350.253906 C 340.078125 349.484375 338.046875 346.097656 340.644531 338.621094 C 342.046875 334.574219 346.089844 328.414062 352.613281 323.109375 C 351.121094 320.042969 349.464844 316.921875 348.621094 314.0625 C 346.960938 308.40625 346.449219 304.992188 346.449219 304.992188 C 346.449219 304.992188 341.0625 316.144531 334.128906 326.296875 C 333.726562 326.886719 333.328125 327.457031 332.929688 328.03125 C 334.292969 331.191406 335.371094 334.546875 335.515625 337.929688 C 335.769531 344.0625 333.109375 348.699219 328.710938 351.9375 C 326.328125 353.695312 323.789062 354.90625 321.601562 355.683594 C 320.203125 356.289062 317.367188 357.285156 313.335938 357.558594 C 312.851562 357.59375 312.371094 357.617188 311.902344 357.617188 C 310.242188 357.617188 308.746094 357.378906 307.816406 356.679688 C 306.1875 355.453125 305.988281 353.921875 306.832031 351.84375 C 307.546875 350.078125 312.886719 343.96875 317.375 338.621094 C 318.609375 337.144531 319.792969 335.640625 320.847656 334.246094 C 320.832031 334.210938 320.828125 334.1875 320.828125 334.1875 C 320.828125 334.1875 321.640625 333.136719 322.960938 331.304688 C 321.324219 327.78125 319.242188 324.097656 318.265625 320.773438 C 316.605469 315.121094 316.101562 311.695312 316.101562 311.695312 C 316.101562 311.695312 310.648438 325.6875 304.964844 336.847656 C 300.566406 345.492188 297.628906 350.730469 296.308594 353.03125 C 296.296875 353.089844 296.289062 353.117188 296.289062 353.117188 C 296.289062 353.117188 296.09375 353.453125 295.753906 353.976562 C 295.585938 354.261719 295.503906 354.410156 295.503906 354.410156 C 295.503906 354.410156 295.5 354.390625 295.492188 354.371094 C 294.019531 356.546875 290.707031 360.816406 287.417969 360.816406 C 278.386719 360.816406 281.707031 342.46875 281.707031 342.46875 C 281.707031 342.46875 279.070312 349.265625 276.089844 355.097656 C 273.667969 359.855469 271.457031 363.878906 266.628906 363.878906 C 265.234375 363.878906 263.035156 363.832031 261.203125 362.097656 C 257.054688 358.15625 253.886719 348.148438 254.507812 340.402344 C 255.035156 333.808594 256.046875 329.246094 257.433594 325.4375 C 254.949219 326.789062 252.09375 328.386719 249.179688 330.097656 C 247.683594 330.976562 246.179688 331.867188 244.699219 332.742188 C 244.75 332.828125 244.800781 332.921875 244.84375 333.007812 C 248.558594 340.1875 249.535156 355.898438 241.449219 367.96875 C 234.886719 377.757812 223.761719 384.445312 211.960938 384.445312 C 209.207031 384.445312 206.417969 384.082031 203.648438 383.304688 C 198.914062 381.988281 191.757812 372.195312 197.925781 358.546875 C 203.363281 346.515625 225.101562 335.125 230.828125 332.292969 C 231.308594 332.027344 231.84375 331.738281 232.40625 331.429688 C 220.988281 321.433594 192.460938 307.953125 188.464844 287.242188 C 187.335938 281.414062 190.066406 267.457031 207.1875 251.429688 C 221.582031 237.953125 241.617188 227.636719 260.113281 221.058594 C 270.296875 217.4375 280.660156 215.707031 290.183594 215.707031 Z M 292.59375 239.042969 C 303.027344 239.042969 307.285156 242.074219 307.777344 242.824219 C 308.464844 244.34375 308.308594 247.734375 305.664062 252.40625 C 299.996094 262.410156 285.238281 273.515625 265.050781 275.78125 C 263.792969 275.921875 262.5625 275.992188 261.386719 275.992188 C 253.835938 275.992188 250.699219 273.109375 250.671875 273.078125 C 248.917969 271.140625 246.105469 268.039062 241.246094 268.035156 C 239.433594 268.035156 237.667969 268.511719 235.992188 269.441406 C 234.570312 270.230469 227.660156 274.6875 231.601562 284.953125 C 233.742188 290.523438 240.429688 297.589844 250.585938 300.925781 C 253.296875 301.816406 256.621094 302.4375 260.277344 302.773438 C 258.796875 304.242188 257.484375 305.726562 256.371094 307.136719 C 253.214844 308.863281 248.289062 311.5625 243.121094 314.40625 L 242.144531 314.933594 C 238.988281 312.148438 235.617188 309.5625 232.320312 307.023438 C 221.582031 298.757812 214.574219 292.824219 214.945312 285.988281 C 215.734375 271.535156 236.734375 258.109375 254.210938 249.390625 C 267.59375 242.71875 281.226562 239.042969 292.59375 239.042969 Z M 305.0625 293.875 C 304.976562 294.195312 304.90625 294.523438 304.820312 294.863281 C 304.542969 295.992188 304.226562 297.257812 303.847656 298.367188 C 303.523438 299.25 302.167969 302.390625 300.375 306.46875 C 300.097656 306.3125 299.820312 306.164062 299.53125 306.027344 C 299.042969 303.175781 298.011719 300.242188 296.078125 297.695312 C 297.046875 297.355469 298.019531 296.988281 299.015625 296.605469 C 301.050781 295.816406 303.074219 294.90625 305.0625 293.875 Z M 282.558594 309.953125 C 280.875 309.953125 278.140625 311.421875 275.59375 314.269531 C 273.398438 316.730469 269.660156 323.070312 267.910156 328.375 C 264.433594 338.914062 265.929688 349.625 268.398438 350.273438 C 268.472656 350.292969 268.554688 350.300781 268.628906 350.300781 C 271.519531 350.300781 276.058594 336.792969 278.253906 331.429688 C 279.667969 327.976562 285.171875 312.667969 283.964844 310.625 C 283.699219 310.175781 283.210938 309.953125 282.558594 309.953125 Z M 355.730469 327.3125 C 352.074219 330.542969 349.972656 333.929688 349.050781 335.9375 C 346.707031 341.058594 346.589844 342.695312 347.300781 343.207031 C 350.714844 341.980469 356.351562 339.019531 356.398438 331.105469 C 356.410156 329.917969 356.15625 328.640625 355.730469 327.3125 Z M 237.765625 336.035156 C 237.410156 336.242188 237.082031 336.441406 236.757812 336.636719 L 236.757812 336.648438 C 236.757812 336.648438 236.609375 336.734375 236.328125 336.898438 C 234.644531 337.90625 233.25 338.742188 232.3125 339.308594 C 228.160156 341.902344 221.90625 346.121094 217.058594 350.695312 C 209.109375 358.199219 207.441406 368.617188 211.636719 371.050781 C 212.53125 371.570312 213.714844 371.824219 215.070312 371.824219 C 219.578125 371.824219 226.066406 368.988281 231.046875 363.554688 C 237.847656 356.125 240.652344 346.71875 237.765625 336.035156 Z M 326.03125 337.261719 C 324.621094 339.113281 323.324219 340.761719 322.207031 342.152344 C 320.285156 344.546875 315.402344 349.792969 315.402344 349.792969 C 315.402344 349.792969 314.710938 350.449219 315.011719 350.628906 C 315.109375 350.6875 315.234375 350.714844 315.375 350.714844 C 315.839844 350.714844 316.523438 350.433594 317.261719 350.050781 C 319.96875 348.347656 326.039062 344.101562 326.050781 337.804688 C 326.050781 337.625 326.046875 337.445312 326.03125 337.261719 Z M 326.03125 337.261719 "/>
</g>
</g>
</svg>
