<?xml version="1.0" encoding="UTF-8"?>
<svg xmlns="http://www.w3.org/2000/svg" xmlns:xlink="http://www.w3.org/1999/xlink" width="600pt" height="599.999999pt" viewBox="0 0 600 599.999999" version="1.2">
<defs>
<clipPath id="clip1">
  <path d="M 197.960938 172.453125 L 401.890625 172.453125 L 401.890625 427.355469 L 197.960938 427.355469 Z M 197.960938 172.453125 "/>
</clipPath>
<clipPath id="clip2">
  <path d="M 299.925781 231.929688 C 316.707031 231.929688 327.847656 234.308594 332.285156 236.179688 C 327.847656 238.050781 316.707031 240.425781 299.925781 240.425781 C 283.144531 240.425781 272.003906 238.050781 267.566406 236.179688 C 272.003906 234.308594 283.144531 231.929688 299.925781 231.929688 Z M 265.9375 244.652344 C 267.941406 245.371094 270.050781 245.90625 271.964844 246.332031 C 279.480469 248.003906 289.410156 248.925781 299.925781 248.925781 C 310.4375 248.925781 320.371094 248.003906 327.886719 246.332031 C 329.800781 245.90625 331.910156 245.371094 333.914062 244.652344 L 333.914062 260.804688 C 331.339844 262.699219 319.453125 265.917969 299.925781 265.917969 C 280.394531 265.917969 268.511719 262.699219 265.9375 260.804688 Z M 265.9375 270.140625 C 267.941406 270.859375 270.050781 271.398438 271.964844 271.824219 C 279.480469 273.496094 289.410156 274.414062 299.925781 274.414062 C 310.4375 274.414062 320.371094 273.496094 327.886719 271.824219 C 329.800781 271.398438 331.910156 270.859375 333.914062 270.140625 L 333.914062 286.292969 C 331.339844 288.1875 319.453125 291.40625 299.925781 291.40625 C 280.394531 291.40625 268.511719 288.1875 265.9375 286.292969 Z M 299.925781 316.898438 C 280.414062 316.898438 268.523438 313.683594 265.9375 311.789062 L 265.9375 295.628906 C 267.941406 296.351562 270.050781 296.886719 271.964844 297.3125 C 279.480469 298.984375 289.410156 299.902344 299.925781 299.902344 C 310.4375 299.902344 320.371094 298.984375 327.886719 297.3125 C 329.800781 296.886719 331.910156 296.351562 333.914062 295.628906 L 333.914062 311.789062 C 331.328125 313.683594 319.4375 316.898438 299.925781 316.898438 Z M 271.964844 322.804688 C 279.480469 324.476562 289.410156 325.394531 299.925781 325.394531 C 310.4375 325.394531 320.371094 324.476562 327.886719 322.804688 C 334.121094 321.417969 342.410156 318.859375 342.410156 312.648438 L 342.410156 236.179688 C 342.410156 229.96875 334.121094 227.410156 327.886719 226.023438 C 320.371094 224.351562 310.4375 223.433594 299.925781 223.433594 C 289.410156 223.433594 279.480469 224.351562 271.964844 226.023438 C 265.730469 227.410156 257.441406 229.96875 257.441406 236.179688 L 257.441406 312.648438 C 257.441406 318.859375 265.730469 321.417969 271.964844 322.804688 Z M 299.925781 401.863281 C 295.320312 401.863281 291.429688 396.027344 291.429688 389.117188 C 291.429688 382.210938 295.320312 376.375 299.925781 376.375 C 304.53125 376.375 308.421875 382.210938 308.421875 389.117188 C 308.421875 391.183594 308.074219 393.148438 307.460938 394.894531 L 302.929688 390.363281 C 301.269531 388.703125 298.582031 388.703125 296.921875 390.363281 C 295.261719 392.023438 295.261719 394.710938 296.921875 396.371094 L 302.007812 401.460938 C 301.339844 401.722656 300.640625 401.863281 299.925781 401.863281 Z M 313.847656 401.277344 C 315.78125 397.832031 316.917969 393.640625 316.917969 389.117188 C 316.917969 377.40625 309.296875 367.878906 299.925781 367.878906 C 290.554688 367.878906 282.929688 377.40625 282.929688 389.117188 C 282.929688 400.832031 290.554688 410.359375 299.925781 410.359375 C 302.929688 410.359375 305.753906 409.375 308.207031 407.65625 L 309.667969 409.117188 C 310.496094 409.945312 311.582031 410.359375 312.671875 410.359375 C 313.757812 410.359375 314.84375 409.945312 315.675781 409.117188 C 317.335938 407.457031 317.335938 404.769531 315.675781 403.109375 Z M 350.90625 406.113281 C 350.90625 408.457031 349.003906 410.359375 346.660156 410.359375 L 329.664062 410.359375 C 327.320312 410.359375 325.417969 408.457031 325.417969 406.113281 L 325.417969 372.125 C 325.417969 369.78125 327.320312 367.878906 329.664062 367.878906 C 332.011719 367.878906 333.914062 369.78125 333.914062 372.125 L 333.914062 401.863281 L 346.660156 401.863281 C 349.003906 401.863281 350.90625 403.765625 350.90625 406.113281 Z M 257.441406 380.621094 C 257.441406 382.964844 259.347656 384.871094 261.6875 384.871094 C 268.71875 384.871094 274.433594 390.585938 274.433594 397.617188 C 274.433594 404.644531 268.71875 410.359375 261.6875 410.359375 L 253.191406 410.359375 C 250.84375 410.359375 248.941406 408.457031 248.941406 406.113281 C 248.941406 403.765625 250.84375 401.863281 253.191406 401.863281 L 261.6875 401.863281 C 264.03125 401.863281 265.9375 399.957031 265.9375 397.617188 C 265.9375 395.273438 264.03125 393.367188 261.6875 393.367188 C 254.660156 393.367188 248.941406 387.652344 248.941406 380.621094 C 248.941406 373.59375 254.660156 367.878906 261.6875 367.878906 L 270.1875 367.878906 C 272.53125 367.878906 274.433594 369.78125 274.433594 372.125 C 274.433594 374.472656 272.53125 376.375 270.1875 376.375 L 261.6875 376.375 C 259.347656 376.375 257.441406 378.28125 257.441406 380.621094 Z M 372.152344 418.859375 L 227.699219 418.859375 C 215.988281 418.859375 206.457031 409.328125 206.457031 397.617188 L 206.457031 359.378906 L 393.394531 359.378906 L 393.394531 397.617188 C 393.394531 409.328125 383.863281 418.859375 372.152344 418.859375 Z M 227.699219 180.949219 L 342.410156 180.949219 L 342.410156 202.191406 C 342.410156 218.589844 355.75 231.929688 372.152344 231.929688 L 393.394531 231.929688 L 393.394531 350.882812 L 206.457031 350.882812 L 206.457031 202.191406 C 206.457031 190.480469 215.988281 180.949219 227.699219 180.949219 Z M 350.90625 186.957031 L 387.386719 223.433594 L 372.152344 223.433594 C 360.4375 223.433594 350.90625 213.902344 350.90625 202.191406 Z M 349.664062 173.699219 C 348.867188 172.902344 347.785156 172.453125 346.660156 172.453125 L 227.699219 172.453125 C 211.300781 172.453125 197.960938 185.792969 197.960938 202.191406 L 197.960938 397.617188 C 197.960938 414.015625 211.300781 427.355469 227.699219 427.355469 L 372.152344 427.355469 C 388.550781 427.355469 401.890625 414.015625 401.890625 397.617188 L 401.890625 227.683594 C 401.890625 226.554688 401.441406 225.476562 400.644531 224.679688 Z M 349.664062 173.699219 "/>
</clipPath>
<clipPath id="clip3">
  <path d="M 299.925781 231.929688 C 316.707031 231.929688 327.847656 234.308594 332.285156 236.179688 C 327.847656 238.050781 316.707031 240.425781 299.925781 240.425781 C 283.144531 240.425781 272.003906 238.050781 267.566406 236.179688 C 272.003906 234.308594 283.144531 231.929688 299.925781 231.929688 Z M 265.9375 244.652344 C 267.941406 245.371094 270.050781 245.90625 271.964844 246.332031 C 279.480469 248.003906 289.410156 248.925781 299.925781 248.925781 C 310.4375 248.925781 320.371094 248.003906 327.886719 246.332031 C 329.800781 245.90625 331.910156 245.371094 333.914062 244.652344 L 333.914062 260.804688 C 331.339844 262.699219 319.453125 265.917969 299.925781 265.917969 C 280.394531 265.917969 268.511719 262.699219 265.9375 260.804688 Z M 265.9375 270.140625 C 267.941406 270.859375 270.050781 271.398438 271.964844 271.824219 C 279.480469 273.496094 289.410156 274.414062 299.925781 274.414062 C 310.4375 274.414062 320.371094 273.496094 327.886719 271.824219 C 329.800781 271.398438 331.910156 270.859375 333.914062 270.140625 L 333.914062 286.292969 C 331.339844 288.1875 319.453125 291.40625 299.925781 291.40625 C 280.394531 291.40625 268.511719 288.1875 265.9375 286.292969 Z M 299.925781 316.898438 C 280.414062 316.898438 268.523438 313.683594 265.9375 311.789062 L 265.9375 295.628906 C 267.941406 296.351562 270.050781 296.886719 271.964844 297.3125 C 279.480469 298.984375 289.410156 299.902344 299.925781 299.902344 C 310.4375 299.902344 320.371094 298.984375 327.886719 297.3125 C 329.800781 296.886719 331.910156 296.351562 333.914062 295.628906 L 333.914062 311.789062 C 331.328125 313.683594 319.4375 316.898438 299.925781 316.898438 Z M 271.964844 322.804688 C 279.480469 324.476562 289.410156 325.394531 299.925781 325.394531 C 310.4375 325.394531 320.371094 324.476562 327.886719 322.804688 C 334.121094 321.417969 342.410156 318.859375 342.410156 312.648438 L 342.410156 236.179688 C 342.410156 229.96875 334.121094 227.410156 327.886719 226.023438 C 320.371094 224.351562 310.4375 223.433594 299.925781 223.433594 C 289.410156 223.433594 279.480469 224.351562 271.964844 226.023438 C 265.730469 227.410156 257.441406 229.96875 257.441406 236.179688 L 257.441406 312.648438 C 257.441406 318.859375 265.730469 321.417969 271.964844 322.804688 Z M 299.925781 401.863281 C 295.320312 401.863281 291.429688 396.027344 291.429688 389.117188 C 291.429688 382.210938 295.320312 376.375 299.925781 376.375 C 304.53125 376.375 308.421875 382.210938 308.421875 389.117188 C 308.421875 391.183594 308.074219 393.148438 307.460938 394.894531 L 302.929688 390.363281 C 301.269531 388.703125 298.582031 388.703125 296.921875 390.363281 C 295.261719 392.023438 295.261719 394.710938 296.921875 396.371094 L 302.007812 401.460938 C 301.339844 401.722656 300.640625 401.863281 299.925781 401.863281 Z M 313.847656 401.277344 C 315.78125 397.832031 316.917969 393.640625 316.917969 389.117188 C 316.917969 377.40625 309.296875 367.878906 299.925781 367.878906 C 290.554688 367.878906 282.929688 377.40625 282.929688 389.117188 C 282.929688 400.832031 290.554688 410.359375 299.925781 410.359375 C 302.929688 410.359375 305.753906 409.375 308.207031 407.65625 L 309.667969 409.117188 C 310.496094 409.945312 311.582031 410.359375 312.671875 410.359375 C 313.757812 410.359375 314.84375 409.945312 315.675781 409.117188 C 317.335938 407.457031 317.335938 404.769531 315.675781 403.109375 Z M 350.90625 406.113281 C 350.90625 408.457031 349.003906 410.359375 346.660156 410.359375 L 329.664062 410.359375 C 327.320312 410.359375 325.417969 408.457031 325.417969 406.113281 L 325.417969 372.125 C 325.417969 369.78125 327.320312 367.878906 329.664062 367.878906 C 332.011719 367.878906 333.914062 369.78125 333.914062 372.125 L 333.914062 401.863281 L 346.660156 401.863281 C 349.003906 401.863281 350.90625 403.765625 350.90625 406.113281 Z M 257.441406 380.621094 C 257.441406 382.964844 259.347656 384.871094 261.6875 384.871094 C 268.71875 384.871094 274.433594 390.585938 274.433594 397.617188 C 274.433594 404.644531 268.71875 410.359375 261.6875 410.359375 L 253.191406 410.359375 C 250.84375 410.359375 248.941406 408.457031 248.941406 406.113281 C 248.941406 403.765625 250.84375 401.863281 253.191406 401.863281 L 261.6875 401.863281 C 264.03125 401.863281 265.9375 399.957031 265.9375 397.617188 C 265.9375 395.273438 264.03125 393.367188 261.6875 393.367188 C 254.660156 393.367188 248.941406 387.652344 248.941406 380.621094 C 248.941406 373.59375 254.660156 367.878906 261.6875 367.878906 L 270.1875 367.878906 C 272.53125 367.878906 274.433594 369.78125 274.433594 372.125 C 274.433594 374.472656 272.53125 376.375 270.1875 376.375 L 261.6875 376.375 C 259.347656 376.375 257.441406 378.28125 257.441406 380.621094 Z M 372.152344 418.859375 L 227.699219 418.859375 C 215.988281 418.859375 206.457031 409.328125 206.457031 397.617188 L 206.457031 359.378906 L 393.394531 359.378906 L 393.394531 397.617188 C 393.394531 409.328125 383.863281 418.859375 372.152344 418.859375 Z M 227.699219 180.949219 L 342.410156 180.949219 L 342.410156 202.191406 C 342.410156 218.589844 355.75 231.929688 372.152344 231.929688 L 393.394531 231.929688 L 393.394531 350.882812 L 206.457031 350.882812 L 206.457031 202.191406 C 206.457031 190.480469 215.988281 180.949219 227.699219 180.949219 Z M 350.90625 186.957031 L 387.386719 223.433594 L 372.152344 223.433594 C 360.4375 223.433594 350.90625 213.902344 350.90625 202.191406 Z M 349.664062 173.699219 C 348.867188 172.902344 347.785156 172.453125 346.660156 172.453125 L 227.699219 172.453125 C 211.300781 172.453125 197.960938 185.792969 197.960938 202.191406 L 197.960938 397.617188 C 197.960938 414.015625 211.300781 427.355469 227.699219 427.355469 L 372.152344 427.355469 C 388.550781 427.355469 401.890625 414.015625 401.890625 397.617188 L 401.890625 227.683594 C 401.890625 226.554688 401.441406 225.476562 400.644531 224.679688 L 349.664062 173.699219 "/>
</clipPath>
<linearGradient id="linear0" gradientUnits="userSpaceOnUse" x1="0.0000000467572" y1="0" x2="1" y2="0" gradientTransform="matrix(0,-254.90041,254.91214,0,299.92535,427.35414)">
<stop offset="0" style="stop-color:rgb(32.499695%,77.999878%,92.199707%);stop-opacity:1;"/>
<stop offset="0.00390625" style="stop-color:rgb(32.499695%,77.999878%,92.539978%);stop-opacity:1;"/>
<stop offset="0.0078125" style="stop-color:rgb(32.499695%,77.999878%,92.880249%);stop-opacity:1;"/>
<stop offset="0.0117188" style="stop-color:rgb(32.699585%,77.818298%,92.889404%);stop-opacity:1;"/>
<stop offset="0.015625" style="stop-color:rgb(32.899475%,77.636719%,92.89856%);stop-opacity:1;"/>
<stop offset="0.0195312" style="stop-color:rgb(32.720947%,77.445984%,92.698669%);stop-opacity:1;"/>
<stop offset="0.0234375" style="stop-color:rgb(32.542419%,77.255249%,92.498779%);stop-opacity:1;"/>
<stop offset="0.0273438" style="stop-color:rgb(32.720947%,77.064514%,92.698669%);stop-opacity:1;"/>
<stop offset="0.03125" style="stop-color:rgb(32.899475%,76.873779%,92.89856%);stop-opacity:1;"/>
<stop offset="0.0351562" style="stop-color:rgb(33.099365%,76.483154%,92.698669%);stop-opacity:1;"/>
<stop offset="0.0390625" style="stop-color:rgb(33.299255%,76.092529%,92.498779%);stop-opacity:1;"/>
<stop offset="0.0429688" style="stop-color:rgb(33.299255%,75.895691%,92.498779%);stop-opacity:1;"/>
<stop offset="0.046875" style="stop-color:rgb(33.299255%,75.698853%,92.498779%);stop-opacity:1;"/>
<stop offset="0.0507812" style="stop-color:rgb(33.299255%,75.498962%,92.698669%);stop-opacity:1;"/>
<stop offset="0.0546875" style="stop-color:rgb(33.299255%,75.299072%,92.89856%);stop-opacity:1;"/>
<stop offset="0.0585938" style="stop-color:rgb(33.499146%,74.923706%,92.89856%);stop-opacity:1;"/>
<stop offset="0.0625" style="stop-color:rgb(33.699036%,74.549866%,92.89856%);stop-opacity:1;"/>
<stop offset="0.0664062" style="stop-color:rgb(33.898926%,74.108887%,92.883301%);stop-opacity:1;"/>
<stop offset="0.0703125" style="stop-color:rgb(34.098816%,73.667908%,92.868042%);stop-opacity:1;"/>
<stop offset="0.0742188" style="stop-color:rgb(34.098816%,73.277283%,92.678833%);stop-opacity:1;"/>
<stop offset="0.078125" style="stop-color:rgb(34.098816%,72.886658%,92.489624%);stop-opacity:1;"/>
<stop offset="0.0820312" style="stop-color:rgb(34.098816%,72.544861%,92.147827%);stop-opacity:1;"/>
<stop offset="0.0859375" style="stop-color:rgb(34.098816%,72.20459%,91.80603%);stop-opacity:1;"/>
<stop offset="0.0898438" style="stop-color:rgb(34.486389%,71.813965%,91.615295%);stop-opacity:1;"/>
<stop offset="0.09375" style="stop-color:rgb(34.873962%,71.424866%,91.424561%);stop-opacity:1;"/>
<stop offset="0.0976562" style="stop-color:rgb(35.264587%,71.034241%,91.233826%);stop-opacity:1;"/>
<stop offset="0.101562" style="stop-color:rgb(35.655212%,70.643616%,91.043091%);stop-opacity:1;"/>
<stop offset="0.105469" style="stop-color:rgb(35.694885%,70.402527%,90.802002%);stop-opacity:1;"/>
<stop offset="0.109375" style="stop-color:rgb(35.736084%,70.161438%,90.562439%);stop-opacity:1;"/>
<stop offset="0.113281" style="stop-color:rgb(35.926819%,69.770813%,90.371704%);stop-opacity:1;"/>
<stop offset="0.117188" style="stop-color:rgb(36.117554%,69.380188%,90.180969%);stop-opacity:1;"/>
<stop offset="0.121094" style="stop-color:rgb(36.308289%,68.989563%,89.990234%);stop-opacity:1;"/>
<stop offset="0.125" style="stop-color:rgb(36.499023%,68.598938%,89.7995%);stop-opacity:1;"/>
<stop offset="0.128906" style="stop-color:rgb(36.889648%,68.208313%,89.599609%);stop-opacity:1;"/>
<stop offset="0.132812" style="stop-color:rgb(37.280273%,67.817688%,89.399719%);stop-opacity:1;"/>
<stop offset="0.136719" style="stop-color:rgb(37.620544%,67.672729%,89.199829%);stop-opacity:1;"/>
<stop offset="0.140625" style="stop-color:rgb(37.962341%,67.527771%,88.999939%);stop-opacity:1;"/>
<stop offset="0.144531" style="stop-color:rgb(38.201904%,67.09137%,88.598633%);stop-opacity:1;"/>
<stop offset="0.148438" style="stop-color:rgb(38.442993%,66.654968%,88.198853%);stop-opacity:1;"/>
<stop offset="0.152344" style="stop-color:rgb(38.633728%,66.264343%,87.998962%);stop-opacity:1;"/>
<stop offset="0.15625" style="stop-color:rgb(38.824463%,65.873718%,87.799072%);stop-opacity:1;"/>
<stop offset="0.160156" style="stop-color:rgb(39.015198%,65.486145%,87.649536%);stop-opacity:1;"/>
<stop offset="0.164062" style="stop-color:rgb(39.205933%,65.098572%,87.5%);stop-opacity:1;"/>
<stop offset="0.167969" style="stop-color:rgb(39.596558%,64.904785%,87.306213%);stop-opacity:1;"/>
<stop offset="0.171875" style="stop-color:rgb(39.987183%,64.710999%,87.112427%);stop-opacity:1;"/>
<stop offset="0.175781" style="stop-color:rgb(40.177917%,64.320374%,86.921692%);stop-opacity:1;"/>
<stop offset="0.179688" style="stop-color:rgb(40.368652%,63.929749%,86.730957%);stop-opacity:1;"/>
<stop offset="0.183594" style="stop-color:rgb(40.557861%,63.7146%,86.540222%);stop-opacity:1;"/>
<stop offset="0.1875" style="stop-color:rgb(40.748596%,63.499451%,86.349487%);stop-opacity:1;"/>
<stop offset="0.191406" style="stop-color:rgb(41.172791%,63.087463%,86.108398%);stop-opacity:1;"/>
<stop offset="0.195312" style="stop-color:rgb(41.598511%,62.675476%,85.86731%);stop-opacity:1;"/>
<stop offset="0.199219" style="stop-color:rgb(41.804504%,62.330627%,85.676575%);stop-opacity:1;"/>
<stop offset="0.203125" style="stop-color:rgb(42.012024%,61.987305%,85.487366%);stop-opacity:1;"/>
<stop offset="0.207031" style="stop-color:rgb(42.352295%,61.59668%,85.293579%);stop-opacity:1;"/>
<stop offset="0.210938" style="stop-color:rgb(42.694092%,61.206055%,85.099792%);stop-opacity:1;"/>
<stop offset="0.214844" style="stop-color:rgb(43.083191%,61.01532%,84.898376%);stop-opacity:1;"/>
<stop offset="0.21875" style="stop-color:rgb(43.473816%,60.824585%,84.698486%);stop-opacity:1;"/>
<stop offset="0.222656" style="stop-color:rgb(43.864441%,60.43396%,84.498596%);stop-opacity:1;"/>
<stop offset="0.226562" style="stop-color:rgb(44.255066%,60.043335%,84.298706%);stop-opacity:1;"/>
<stop offset="0.230469" style="stop-color:rgb(44.696045%,59.602356%,83.898926%);stop-opacity:1;"/>
<stop offset="0.234375" style="stop-color:rgb(45.137024%,59.161377%,83.499146%);stop-opacity:1;"/>
<stop offset="0.242188" style="stop-color:rgb(45.327759%,58.970642%,83.48999%);stop-opacity:1;"/>
<stop offset="0.246094" style="stop-color:rgb(45.909119%,58.389282%,83.2901%);stop-opacity:1;"/>
<stop offset="0.25" style="stop-color:rgb(46.299744%,57.998657%,83.099365%);stop-opacity:1;"/>
<stop offset="0.253906" style="stop-color:rgb(46.690369%,57.655334%,82.756042%);stop-opacity:1;"/>
<stop offset="0.257812" style="stop-color:rgb(47.080994%,57.313538%,82.41272%);stop-opacity:1;"/>
<stop offset="0.261719" style="stop-color:rgb(47.425842%,56.924438%,82.225037%);stop-opacity:1;"/>
<stop offset="0.265625" style="stop-color:rgb(47.770691%,56.536865%,82.037354%);stop-opacity:1;"/>
<stop offset="0.269531" style="stop-color:rgb(48.007202%,56.095886%,81.796265%);stop-opacity:1;"/>
<stop offset="0.273438" style="stop-color:rgb(48.243713%,55.654907%,81.555176%);stop-opacity:1;"/>
<stop offset="0.277344" style="stop-color:rgb(48.634338%,55.264282%,81.364441%);stop-opacity:1;"/>
<stop offset="0.28125" style="stop-color:rgb(49.024963%,54.873657%,81.173706%);stop-opacity:1;"/>
<stop offset="0.289062" style="stop-color:rgb(49.214172%,54.682922%,80.982971%);stop-opacity:1;"/>
<stop offset="0.292969" style="stop-color:rgb(49.795532%,54.103088%,80.595398%);stop-opacity:1;"/>
<stop offset="0.296875" style="stop-color:rgb(50.186157%,53.712463%,80.39856%);stop-opacity:1;"/>
<stop offset="0.300781" style="stop-color:rgb(50.576782%,53.321838%,80.198669%);stop-opacity:1;"/>
<stop offset="0.304688" style="stop-color:rgb(50.967407%,52.931213%,79.998779%);stop-opacity:1;"/>
<stop offset="0.308594" style="stop-color:rgb(51.182556%,52.740479%,79.823303%);stop-opacity:1;"/>
<stop offset="0.3125" style="stop-color:rgb(51.399231%,52.549744%,79.649353%);stop-opacity:1;"/>
<stop offset="0.316406" style="stop-color:rgb(51.799011%,52.159119%,79.423523%);stop-opacity:1;"/>
<stop offset="0.320312" style="stop-color:rgb(52.198792%,51.768494%,79.199219%);stop-opacity:1;"/>
<stop offset="0.324219" style="stop-color:rgb(52.354431%,51.383972%,78.999329%);stop-opacity:1;"/>
<stop offset="0.328125" style="stop-color:rgb(52.511597%,50.999451%,78.799438%);stop-opacity:1;"/>
<stop offset="0.332031" style="stop-color:rgb(52.705383%,50.802612%,78.6026%);stop-opacity:1;"/>
<stop offset="0.335938" style="stop-color:rgb(52.89917%,50.605774%,78.405762%);stop-opacity:1;"/>
<stop offset="0.339844" style="stop-color:rgb(53.286743%,50.215149%,78.215027%);stop-opacity:1;"/>
<stop offset="0.34375" style="stop-color:rgb(53.674316%,49.824524%,78.024292%);stop-opacity:1;"/>
<stop offset="0.347656" style="stop-color:rgb(53.886414%,49.610901%,77.833557%);stop-opacity:1;"/>
<stop offset="0.351562" style="stop-color:rgb(54.098511%,49.398804%,77.642822%);stop-opacity:1;"/>
<stop offset="0.355469" style="stop-color:rgb(54.498291%,48.979187%,77.606201%);stop-opacity:1;"/>
<stop offset="0.359375" style="stop-color:rgb(54.899597%,48.561096%,77.571106%);stop-opacity:1;"/>
<stop offset="0.367188" style="stop-color:rgb(54.908752%,48.370361%,77.426147%);stop-opacity:1;"/>
<stop offset="0.371094" style="stop-color:rgb(55.308533%,47.839355%,77.090454%);stop-opacity:1;"/>
<stop offset="0.375" style="stop-color:rgb(55.699158%,47.499084%,76.899719%);stop-opacity:1;"/>
<stop offset="0.378906" style="stop-color:rgb(55.889893%,47.108459%,76.699829%);stop-opacity:1;"/>
<stop offset="0.382812" style="stop-color:rgb(56.080627%,46.717834%,76.499939%);stop-opacity:1;"/>
<stop offset="0.386719" style="stop-color:rgb(56.471252%,46.708679%,76.318359%);stop-opacity:1;"/>
<stop offset="0.390625" style="stop-color:rgb(56.861877%,46.699524%,76.13678%);stop-opacity:1;"/>
<stop offset="0.394531" style="stop-color:rgb(57.080078%,46.276855%,76.095581%);stop-opacity:1;"/>
<stop offset="0.398438" style="stop-color:rgb(57.299805%,45.855713%,76.055908%);stop-opacity:1;"/>
<stop offset="0.40625" style="stop-color:rgb(57.461548%,45.664978%,75.865173%);stop-opacity:1;"/>
<stop offset="0.410156" style="stop-color:rgb(57.814026%,45.08667%,75.486755%);stop-opacity:1;"/>
<stop offset="0.414062" style="stop-color:rgb(58.004761%,44.699097%,75.299072%);stop-opacity:1;"/>
<stop offset="0.417969" style="stop-color:rgb(58.201599%,44.50531%,75.299072%);stop-opacity:1;"/>
<stop offset="0.421875" style="stop-color:rgb(58.399963%,44.311523%,75.299072%);stop-opacity:1;"/>
<stop offset="0.425781" style="stop-color:rgb(58.782959%,44.120789%,75.099182%);stop-opacity:1;"/>
<stop offset="0.429688" style="stop-color:rgb(59.16748%,43.930054%,74.899292%);stop-opacity:1;"/>
<stop offset="0.433594" style="stop-color:rgb(59.558105%,43.539429%,74.699402%);stop-opacity:1;"/>
<stop offset="0.4375" style="stop-color:rgb(59.94873%,43.148804%,74.499512%);stop-opacity:1;"/>
<stop offset="0.441406" style="stop-color:rgb(60.372925%,42.773438%,74.299622%);stop-opacity:1;"/>
<stop offset="0.445312" style="stop-color:rgb(60.798645%,42.399597%,74.099731%);stop-opacity:1;"/>
<stop offset="0.449219" style="stop-color:rgb(61.004639%,42.393494%,74.092102%);stop-opacity:1;"/>
<stop offset="0.453125" style="stop-color:rgb(61.212158%,42.38739%,74.085999%);stop-opacity:1;"/>
<stop offset="0.457031" style="stop-color:rgb(61.405945%,41.996765%,73.892212%);stop-opacity:1;"/>
<stop offset="0.460938" style="stop-color:rgb(61.599731%,41.60614%,73.699951%);stop-opacity:1;"/>
<stop offset="0.464844" style="stop-color:rgb(61.987305%,41.401672%,73.498535%);stop-opacity:1;"/>
<stop offset="0.46875" style="stop-color:rgb(62.374878%,41.19873%,73.298645%);stop-opacity:1;"/>
<stop offset="0.472656" style="stop-color:rgb(62.715149%,40.99884%,73.298645%);stop-opacity:1;"/>
<stop offset="0.476562" style="stop-color:rgb(63.05542%,40.79895%,73.298645%);stop-opacity:1;"/>
<stop offset="0.480469" style="stop-color:rgb(63.294983%,40.39917%,73.080444%);stop-opacity:1;"/>
<stop offset="0.484375" style="stop-color:rgb(63.536072%,39.99939%,72.862244%);stop-opacity:1;"/>
<stop offset="0.488281" style="stop-color:rgb(63.926697%,39.788818%,72.680664%);stop-opacity:1;"/>
<stop offset="0.492188" style="stop-color:rgb(64.317322%,39.579773%,72.499084%);stop-opacity:1;"/>
<stop offset="0.496094" style="stop-color:rgb(64.707947%,39.389038%,72.499084%);stop-opacity:1;"/>
<stop offset="0.5" style="stop-color:rgb(65.098572%,39.199829%,72.499084%);stop-opacity:1;"/>
<stop offset="0.503906" style="stop-color:rgb(65.298462%,38.809204%,72.348022%);stop-opacity:1;"/>
<stop offset="0.507812" style="stop-color:rgb(65.499878%,38.418579%,72.198486%);stop-opacity:1;"/>
<stop offset="0.511719" style="stop-color:rgb(65.879822%,38.407898%,72.016907%);stop-opacity:1;"/>
<stop offset="0.515625" style="stop-color:rgb(66.261292%,38.398743%,71.836853%);stop-opacity:1;"/>
<stop offset="0.519531" style="stop-color:rgb(66.50238%,38.17749%,71.817017%);stop-opacity:1;"/>
<stop offset="0.523438" style="stop-color:rgb(66.743469%,37.956238%,71.798706%);stop-opacity:1;"/>
<stop offset="0.527344" style="stop-color:rgb(67.120361%,37.77771%,71.786499%);stop-opacity:1;"/>
<stop offset="0.53125" style="stop-color:rgb(67.498779%,37.599182%,71.774292%);stop-opacity:1;"/>
<stop offset="0.539062" style="stop-color:rgb(67.651367%,37.445068%,71.586609%);stop-opacity:1;"/>
<stop offset="0.542969" style="stop-color:rgb(68.196106%,37.095642%,71.205139%);stop-opacity:1;"/>
<stop offset="0.546875" style="stop-color:rgb(68.586731%,36.898804%,71.011353%);stop-opacity:1;"/>
<stop offset="0.550781" style="stop-color:rgb(68.977356%,36.698914%,71.005249%);stop-opacity:1;"/>
<stop offset="0.554688" style="stop-color:rgb(69.367981%,36.499023%,70.999146%);stop-opacity:1;"/>
<stop offset="0.558594" style="stop-color:rgb(69.38324%,36.299133%,70.999146%);stop-opacity:1;"/>
<stop offset="0.5625" style="stop-color:rgb(69.398499%,36.099243%,70.999146%);stop-opacity:1;"/>
<stop offset="0.566406" style="stop-color:rgb(69.813538%,35.882568%,70.799255%);stop-opacity:1;"/>
<stop offset="0.570312" style="stop-color:rgb(70.230103%,35.667419%,70.599365%);stop-opacity:1;"/>
<stop offset="0.574219" style="stop-color:rgb(70.614624%,35.282898%,70.399475%);stop-opacity:1;"/>
<stop offset="0.578125" style="stop-color:rgb(70.999146%,34.899902%,70.199585%);stop-opacity:1;"/>
<stop offset="0.582031" style="stop-color:rgb(71.195984%,34.703064%,70.199585%);stop-opacity:1;"/>
<stop offset="0.585938" style="stop-color:rgb(71.392822%,34.506226%,70.199585%);stop-opacity:1;"/>
<stop offset="0.589844" style="stop-color:rgb(71.783447%,34.315491%,69.999695%);stop-opacity:1;"/>
<stop offset="0.59375" style="stop-color:rgb(72.174072%,34.124756%,69.799805%);stop-opacity:1;"/>
<stop offset="0.597656" style="stop-color:rgb(72.514343%,33.911133%,69.799805%);stop-opacity:1;"/>
<stop offset="0.601562" style="stop-color:rgb(72.85614%,33.699036%,69.799805%);stop-opacity:1;"/>
<stop offset="0.605469" style="stop-color:rgb(73.295593%,33.479309%,69.598389%);stop-opacity:1;"/>
<stop offset="0.609375" style="stop-color:rgb(73.736572%,33.261108%,69.398499%);stop-opacity:1;"/>
<stop offset="0.613281" style="stop-color:rgb(74.127197%,33.070374%,69.389343%);stop-opacity:1;"/>
<stop offset="0.617188" style="stop-color:rgb(74.517822%,32.881165%,69.380188%);stop-opacity:1;"/>
<stop offset="0.621094" style="stop-color:rgb(74.908447%,32.539368%,69.189453%);stop-opacity:1;"/>
<stop offset="0.625" style="stop-color:rgb(75.299072%,32.199097%,68.998718%);stop-opacity:1;"/>
<stop offset="0.628906" style="stop-color:rgb(75.689697%,32.008362%,68.998718%);stop-opacity:1;"/>
<stop offset="0.632812" style="stop-color:rgb(76.080322%,31.817627%,68.998718%);stop-opacity:1;"/>
<stop offset="0.636719" style="stop-color:rgb(76.289368%,31.626892%,68.798828%);stop-opacity:1;"/>
<stop offset="0.640625" style="stop-color:rgb(76.499939%,31.436157%,68.598938%);stop-opacity:1;"/>
<stop offset="0.644531" style="stop-color:rgb(76.914978%,31.195068%,68.399048%);stop-opacity:1;"/>
<stop offset="0.648438" style="stop-color:rgb(77.331543%,30.955505%,68.199158%);stop-opacity:1;"/>
<stop offset="0.652344" style="stop-color:rgb(77.677917%,30.577087%,68.199158%);stop-opacity:1;"/>
<stop offset="0.65625" style="stop-color:rgb(78.024292%,30.198669%,68.199158%);stop-opacity:1;"/>
<stop offset="0.660156" style="stop-color:rgb(78.414917%,29.998779%,67.999268%);stop-opacity:1;"/>
<stop offset="0.664062" style="stop-color:rgb(78.805542%,29.798889%,67.799377%);stop-opacity:1;"/>
<stop offset="0.667969" style="stop-color:rgb(79.196167%,29.605103%,67.799377%);stop-opacity:1;"/>
<stop offset="0.671875" style="stop-color:rgb(79.586792%,29.411316%,67.799377%);stop-opacity:1;"/>
<stop offset="0.675781" style="stop-color:rgb(79.977417%,29.020691%,67.648315%);stop-opacity:1;"/>
<stop offset="0.679688" style="stop-color:rgb(80.368042%,28.630066%,67.498779%);stop-opacity:1;"/>
<stop offset="0.683594" style="stop-color:rgb(80.758667%,28.439331%,67.498779%);stop-opacity:1;"/>
<stop offset="0.6875" style="stop-color:rgb(81.149292%,28.248596%,67.498779%);stop-opacity:1;"/>
<stop offset="0.691406" style="stop-color:rgb(81.588745%,28.012085%,67.298889%);stop-opacity:1;"/>
<stop offset="0.695312" style="stop-color:rgb(82.029724%,27.775574%,67.098999%);stop-opacity:1;"/>
<stop offset="0.699219" style="stop-color:rgb(82.569885%,27.436829%,66.899109%);stop-opacity:1;"/>
<stop offset="0.703125" style="stop-color:rgb(83.111572%,27.099609%,66.699219%);stop-opacity:1;"/>
<stop offset="0.707031" style="stop-color:rgb(83.502197%,26.902771%,66.699219%);stop-opacity:1;"/>
<stop offset="0.710938" style="stop-color:rgb(83.892822%,26.705933%,66.699219%);stop-opacity:1;"/>
<stop offset="0.714844" style="stop-color:rgb(84.283447%,26.315308%,66.499329%);stop-opacity:1;"/>
<stop offset="0.71875" style="stop-color:rgb(84.674072%,25.924683%,66.299438%);stop-opacity:1;"/>
<stop offset="0.722656" style="stop-color:rgb(85.243225%,25.733948%,66.120911%);stop-opacity:1;"/>
<stop offset="0.726562" style="stop-color:rgb(85.812378%,25.543213%,65.942383%);stop-opacity:1;"/>
<stop offset="0.730469" style="stop-color:rgb(86.074829%,25.120544%,65.921021%);stop-opacity:1;"/>
<stop offset="0.734375" style="stop-color:rgb(86.33728%,24.699402%,65.899658%);stop-opacity:1;"/>
<stop offset="0.738281" style="stop-color:rgb(86.717224%,24.499512%,65.699768%);stop-opacity:1;"/>
<stop offset="0.742188" style="stop-color:rgb(87.098694%,24.299622%,65.499878%);stop-opacity:1;"/>
<stop offset="0.746094" style="stop-color:rgb(87.298584%,24.099731%,65.298462%);stop-opacity:1;"/>
<stop offset="0.75" style="stop-color:rgb(87.5%,23.899841%,65.098572%);stop-opacity:1;"/>
<stop offset="0.753906" style="stop-color:rgb(87.641907%,23.899841%,64.707947%);stop-opacity:1;"/>
<stop offset="0.757812" style="stop-color:rgb(87.785339%,23.899841%,64.317322%);stop-opacity:1;"/>
<stop offset="0.761719" style="stop-color:rgb(87.973022%,23.899841%,63.926697%);stop-opacity:1;"/>
<stop offset="0.765625" style="stop-color:rgb(88.162231%,23.899841%,63.536072%);stop-opacity:1;"/>
<stop offset="0.769531" style="stop-color:rgb(88.201904%,23.677063%,63.078308%);stop-opacity:1;"/>
<stop offset="0.773438" style="stop-color:rgb(88.243103%,23.455811%,62.62207%);stop-opacity:1;"/>
<stop offset="0.777344" style="stop-color:rgb(88.433838%,23.277283%,62.097168%);stop-opacity:1;"/>
<stop offset="0.78125" style="stop-color:rgb(88.624573%,23.098755%,61.573792%);stop-opacity:1;"/>
<stop offset="0.785156" style="stop-color:rgb(88.812256%,22.898865%,61.180115%);stop-opacity:1;"/>
<stop offset="0.789062" style="stop-color:rgb(88.999939%,22.698975%,60.786438%);stop-opacity:1;"/>
<stop offset="0.792969" style="stop-color:rgb(89.1922%,22.698975%,60.198975%);stop-opacity:1;"/>
<stop offset="0.796875" style="stop-color:rgb(89.385986%,22.698975%,59.611511%);stop-opacity:1;"/>
<stop offset="0.800781" style="stop-color:rgb(89.39209%,22.56012%,59.020996%);stop-opacity:1;"/>
<stop offset="0.804688" style="stop-color:rgb(89.399719%,22.422791%,58.430481%);stop-opacity:1;"/>
<stop offset="0.808594" style="stop-color:rgb(89.599609%,22.410583%,57.90863%);stop-opacity:1;"/>
<stop offset="0.8125" style="stop-color:rgb(89.7995%,22.399902%,57.38678%);stop-opacity:1;"/>
<stop offset="0.816406" style="stop-color:rgb(89.99939%,22.383118%,56.7276%);stop-opacity:1;"/>
<stop offset="0.820312" style="stop-color:rgb(90.19928%,22.367859%,56.06842%);stop-opacity:1;"/>
<stop offset="0.824219" style="stop-color:rgb(90.39917%,22.183228%,55.671692%);stop-opacity:1;"/>
<stop offset="0.828125" style="stop-color:rgb(90.59906%,21.998596%,55.274963%);stop-opacity:1;"/>
<stop offset="0.832031" style="stop-color:rgb(90.59906%,22.195435%,54.690552%);stop-opacity:1;"/>
<stop offset="0.835938" style="stop-color:rgb(90.59906%,22.392273%,54.10614%);stop-opacity:1;"/>
<stop offset="0.839844" style="stop-color:rgb(90.786743%,22.395325%,53.527832%);stop-opacity:1;"/>
<stop offset="0.84375" style="stop-color:rgb(90.974426%,22.399902%,52.949524%);stop-opacity:1;"/>
<stop offset="0.847656" style="stop-color:rgb(90.986633%,22.198486%,52.412415%);stop-opacity:1;"/>
<stop offset="0.851562" style="stop-color:rgb(90.99884%,21.998596%,51.875305%);stop-opacity:1;"/>
<stop offset="0.855469" style="stop-color:rgb(91.017151%,21.998596%,51.399231%);stop-opacity:1;"/>
<stop offset="0.859375" style="stop-color:rgb(91.036987%,21.998596%,50.924683%);stop-opacity:1;"/>
<stop offset="0.863281" style="stop-color:rgb(91.217041%,21.989441%,50.352478%);stop-opacity:1;"/>
<stop offset="0.867188" style="stop-color:rgb(91.398621%,21.980286%,49.780273%);stop-opacity:1;"/>
<stop offset="0.871094" style="stop-color:rgb(91.598511%,21.789551%,49.189758%);stop-opacity:1;"/>
<stop offset="0.875" style="stop-color:rgb(91.799927%,21.598816%,48.599243%);stop-opacity:1;"/>
<stop offset="0.878906" style="stop-color:rgb(91.989136%,21.408081%,48.065186%);stop-opacity:1;"/>
<stop offset="0.882812" style="stop-color:rgb(92.179871%,21.217346%,47.532654%);stop-opacity:1;"/>
<stop offset="0.886719" style="stop-color:rgb(92.324829%,21.208191%,47.134399%);stop-opacity:1;"/>
<stop offset="0.890625" style="stop-color:rgb(92.471313%,21.199036%,46.736145%);stop-opacity:1;"/>
<stop offset="0.894531" style="stop-color:rgb(92.684937%,21.199036%,46.095276%);stop-opacity:1;"/>
<stop offset="0.898438" style="stop-color:rgb(92.89856%,21.199036%,45.455933%);stop-opacity:1;"/>
<stop offset="0.902344" style="stop-color:rgb(92.910767%,21.199036%,45.051575%);stop-opacity:1;"/>
<stop offset="0.90625" style="stop-color:rgb(92.9245%,21.199036%,44.648743%);stop-opacity:1;"/>
<stop offset="0.910156" style="stop-color:rgb(93.115234%,21.199036%,43.870544%);stop-opacity:1;"/>
<stop offset="0.914062" style="stop-color:rgb(93.305969%,21.199036%,43.092346%);stop-opacity:1;"/>
<stop offset="0.917969" style="stop-color:rgb(93.502808%,21.005249%,42.750549%);stop-opacity:1;"/>
<stop offset="0.921875" style="stop-color:rgb(93.699646%,20.811462%,42.408752%);stop-opacity:1;"/>
<stop offset="0.925781" style="stop-color:rgb(93.882751%,20.805359%,41.835022%);stop-opacity:1;"/>
<stop offset="0.929688" style="stop-color:rgb(94.067383%,20.799255%,41.261292%);stop-opacity:1;"/>
<stop offset="0.933594" style="stop-color:rgb(94.082642%,20.799255%,40.855408%);stop-opacity:1;"/>
<stop offset="0.9375" style="stop-color:rgb(94.099426%,20.799255%,40.449524%);stop-opacity:1;"/>
<stop offset="0.941406" style="stop-color:rgb(94.099426%,20.799255%,39.808655%);stop-opacity:1;"/>
<stop offset="0.945312" style="stop-color:rgb(94.099426%,20.799255%,39.167786%);stop-opacity:1;"/>
<stop offset="0.949219" style="stop-color:rgb(94.099426%,20.799255%,38.777161%);stop-opacity:1;"/>
<stop offset="0.953125" style="stop-color:rgb(94.099426%,20.799255%,38.386536%);stop-opacity:1;"/>
<stop offset="0.957031" style="stop-color:rgb(94.099426%,20.602417%,37.995911%);stop-opacity:1;"/>
<stop offset="0.960938" style="stop-color:rgb(94.099426%,20.405579%,37.605286%);stop-opacity:1;"/>
<stop offset="0.964844" style="stop-color:rgb(94.099426%,20.602417%,37.065125%);stop-opacity:1;"/>
<stop offset="0.96875" style="stop-color:rgb(94.099426%,20.799255%,36.524963%);stop-opacity:1;"/>
<stop offset="0.972656" style="stop-color:rgb(94.099426%,20.799255%,35.932922%);stop-opacity:1;"/>
<stop offset="0.976562" style="stop-color:rgb(94.099426%,20.799255%,35.342407%);stop-opacity:1;"/>
<stop offset="0.980469" style="stop-color:rgb(94.099426%,20.999146%,34.701538%);stop-opacity:1;"/>
<stop offset="0.984375" style="stop-color:rgb(94.099426%,21.199036%,34.062195%);stop-opacity:1;"/>
<stop offset="0.988281" style="stop-color:rgb(94.099426%,21.199036%,33.862305%);stop-opacity:1;"/>
<stop offset="0.992188" style="stop-color:rgb(94.099426%,21.199036%,33.662415%);stop-opacity:1;"/>
<stop offset="0.996094" style="stop-color:rgb(94.099426%,21.199036%,33.081055%);stop-opacity:1;"/>
<stop offset="1" style="stop-color:rgb(94.099426%,21.199036%,32.499695%);stop-opacity:1;"/>
</linearGradient>
</defs>
<g id="surface1">
<rect x="0" y="0" width="600" height="599.999999" style="fill:rgb(100%,100%,100%);fill-opacity:1;stroke:none;"/>
<rect x="0" y="0" width="600" height="599.999999" style="fill:rgb(100%,100%,100%);fill-opacity:1;stroke:none;"/>
<g clip-path="url(#clip1)" clip-rule="nonzero">
<g clip-path="url(#clip2)" clip-rule="nonzero">
<g clip-path="url(#clip3)" clip-rule="nonzero">
<path style=" stroke:none;fill-rule:nonzero;fill:url(#linear0);" d="M 197.960938 427.355469 L 401.890625 427.355469 L 401.890625 172.453125 L 197.960938 172.453125 Z M 197.960938 427.355469 "/>
</g>
</g>
</g>
</g>
</svg>
